<?xml version="1.0" standalone="no"?>
<!DOCTYPE svg PUBLIC "-//W3C//DTD SVG 1.1//EN" "http://www.w3.org/Graphics/SVG/1.1/DTD/svg11.dtd" >
<!--
2015-5-9: Created with FontForge (http://fontforge.org)
-->
<svg xmlns="http://www.w3.org/2000/svg" xmlns:xlink="http://www.w3.org/1999/xlink" version="1.1">
<metadata>
Created by FontForge 20150401 at Sat May  9 15:40:47 2015
 By Taras Remez
Copyright (c) 2015, Taras Remez
</metadata>
<defs>
<font id="font-av" horiz-adv-x="512" >
  <font-face 
    font-family="font-av"
    font-weight="400"
    font-stretch="normal"
    units-per-em="512"
    panose-1="2 0 5 3 0 0 0 0 0 0"
    ascent="448"
    descent="-64"
    bbox="0 -64 512 448"
    underline-thickness="25.6"
    underline-position="-51.2"
    unicode-range="U+0020-F134"
  />
    <missing-glyph />
    <glyph glyph-name="space" unicode=" " horiz-adv-x="200" 
 />
    <glyph glyph-name="uniF127" unicode="&#xf127;" 
d="M0 448h512v-512h-512v512zM128 320h256v-256h-256v256z" />
    <glyph glyph-name="uniF112" unicode="&#xf112;" 
d="M0 448h512v-512h-512v512zM490.667 192l-52.0537 -59.3066l7.25293 -78.5068l-77.0127 -17.4932l-40.3203 -67.8398l-72.5332 31.1465l-72.5332 -31.3604l-40.3203 67.8408l-77.0127 17.4932l7.25293 78.7197l-52.0537 59.3066l52.0537 59.5195l-7.25293 78.5068
l77.0127 17.2803l40.3203 67.8398l72.5332 -31.1465l72.5332 31.1465l40.3203 -67.8398l77.0127 -17.4932l-7.25293 -78.5068zM277.333 85.333v42.667h-42.666v-42.667h42.666zM277.333 170.667v128h-42.666v-128h42.666z" />
    <glyph glyph-name="uniF128" unicode="&#xf128;" 
d="M0 448h512v-512h-512v512zM426.667 362.667c23.4668 0 42.666 -19.2002 42.666 -42.667v-256c0 -23.4668 -19.1992 -42.667 -42.666 -42.667h-341.334c-23.4668 0 -42.666 19.2002 -42.666 42.667v256c0 23.4668 19.1992 42.667 42.666 42.667h341.334zM85.333 192
v-42.667h85.334v42.667h-85.334zM298.667 64v42.667h-213.334v-42.667h213.334zM426.667 64v42.667h-85.334v-42.667h85.334zM426.667 149.333v42.667h-213.334v-42.667h213.334z" />
    <glyph glyph-name="uniF113" unicode="&#xf113;" 
d="M0 448h512v-512h-512v512zM256 405.333c117.76 0 213.333 -95.5732 213.333 -213.333s-95.5732 -213.333 -213.333 -213.333s-213.333 95.5732 -213.333 213.333s95.5732 213.333 213.333 213.333zM256 21.333c39.4668 0 75.7334 13.4404 104.533 36.0537
l-239.146 239.146c-22.6133 -28.7998 -36.0537 -65.0664 -36.0537 -104.533c0 -94.293 76.374 -170.667 170.667 -170.667zM390.613 87.4668c22.6133 28.7998 36.0537 65.0664 36.0537 104.533c0 94.293 -76.374 170.667 -170.667 170.667
c-39.4668 0 -75.7334 -13.4404 -104.533 -36.0537z" />
    <glyph glyph-name="uniF123" unicode="&#xf123;" 
d="M0 448h512v-512h-512v512zM225.92 252.373l-30.293 -30.0801l-110.294 110.294l30.0801 30.0801zM309.333 362.667h117.334v-117.334l-43.5205 43.5205l-267.733 -267.521l-30.0801 30.0801l267.521 267.733zM316.373 161.92l66.7734 -66.7734l43.5205 43.5205v-117.334
h-117.334l43.7334 43.7334l-66.7734 66.7734z" />
    <glyph glyph-name="uniF12D" unicode="&#xf12d;" 
d="M0 448h512v-512h-512v512zM113.777 248.889h85.334l113.777 113.778v-341.334l-113.777 113.778h-85.334v113.777zM369.777 277.333c33.2803 -13.9375 56.8896 -46.9326 56.8896 -85.333s-23.6094 -71.3955 -56.8896 -85.333v170.666z" />
    <glyph glyph-name="uniF114" unicode="&#xf114;" 
d="M128 42.667v298.666h85.333v-298.666h-85.333zM298.667 341.333h85.333v-298.666h-85.333v298.666zM0 448h512v-512h-512v512z" />
    <glyph glyph-name="uniF12C" unicode="&#xf12c;" 
d="M0 448h512v-512h-512v512zM0 448v-512h512v512h-512zM448 309.333v-227.84l-238.507 238.507h131.84c11.7334 0 21.334 -9.59961 21.334 -21.333v-74.667zM69.7598 405.333l378.24 -378.239l-27.0938 -27.0938l-68.0527 67.8398
c-3.2002 -2.13281 -7.04004 -3.83984 -11.5205 -3.83984h-256c-11.7334 0 -21.333 9.59961 -21.333 21.333v213.334c0 11.7334 9.59961 21.333 21.333 21.333h15.5732l-58.2393 58.2402z" />
    <glyph glyph-name="uniF12F" unicode="&#xf12f;" 
d="M0 448h512v-512h-512v512zM142.223 248.889h85.333l113.777 113.778v-341.334l-113.777 113.778h-85.333v113.777z" />
    <glyph glyph-name="uniF126" unicode="&#xf126;" 
d="M0 448h512v-512h-512v512zM168.106 375.68l-97.9199 -82.1328l-27.5195 32.6396l98.1328 82.1338zM469.333 325.974l-27.5195 -32.6406l-98.1338 82.3467l27.5205 32.6406zM256 362.667c106.026 0 192 -85.9736 192 -192c0 -106.027 -85.9736 -192 -192 -192
c-106.24 0 -192 85.9727 -192 192c0 106.026 85.9736 192 192 192zM256 21.333c82.5596 0 149.333 66.7734 149.333 149.334c0 82.5596 -66.7734 149.333 -149.333 149.333s-149.333 -66.7734 -149.333 -149.333c0 -82.5605 66.7734 -149.334 149.333 -149.334zM192 213.333
v42.667h128v-38.4004l-77.4404 -89.5996h77.4404v-42.667h-128v38.4004l77.4404 89.5996h-77.4404z" />
    <glyph glyph-name="uniF11A" unicode="&#xf11a;" 
d="M341.333 320h128v-277.333c0 -23.6807 -18.9863 -42.667 -42.666 -42.667h-341.334c-23.6797 0 -42.666 18.9863 -42.666 42.667v277.333h128v42.667c0 23.6797 18.9863 42.666 42.666 42.666h85.334c23.6797 0 42.666 -18.9863 42.666 -42.666v-42.667zM213.333 362.667
v-42.667h85.334v42.667h-85.334zM192 64l160 106.667l-160 85.333v-192z" />
    <glyph glyph-name="uniF111" unicode="&#xf111;" 
d="M0 448h512v-512h-512v512zM426.667 405.333c23.4668 0 42.666 -19.1992 42.666 -42.666v-256c0 -23.4668 -19.1992 -42.667 -42.666 -42.667h-256c-23.4668 0 -42.667 19.2002 -42.667 42.667v256c0 23.4668 19.2002 42.666 42.667 42.666h256zM384 298.667v42.666
h-85.333v-117.546c-8.95996 6.82617 -19.8398 10.8799 -32 10.8799c-29.4404 0 -53.334 -23.8936 -53.334 -53.334c0 -29.4395 23.8936 -53.333 53.334 -53.333c29.4395 0 53.333 23.8936 53.333 53.333v117.334h64zM85.333 320v-298.667h298.667v-42.666h-298.667
c-23.4668 0 -42.666 19.1992 -42.666 42.666v298.667h42.666z" />
    <glyph glyph-name="uniF102" unicode="&#xf102;" 
d="M0 448h512v-512h-512v512zM405.333 362.667c23.4668 0 42.667 -19.2002 42.667 -42.667v-256c0 -23.4668 -19.2002 -42.667 -42.667 -42.667h-298.666c-23.6807 0 -42.667 19.2002 -42.667 42.667v256c0 23.4668 18.9863 42.667 42.667 42.667h298.666zM234.667 213.333
v21.334c0 11.7334 -9.60059 21.333 -21.334 21.333h-64c-11.7334 0 -21.333 -9.59961 -21.333 -21.333v-85.334c0 -11.7334 9.59961 -21.333 21.333 -21.333h64c11.7334 0 21.334 9.59961 21.334 21.333v21.334h-32v-10.667h-42.667v64h42.667v-10.667h32zM384 213.333
v21.334c0 11.7334 -9.59961 21.333 -21.333 21.333h-64c-11.7334 0 -21.334 -9.59961 -21.334 -21.333v-85.334c0 -11.7334 9.60059 -21.333 21.334 -21.333h64c11.7334 0 21.333 9.59961 21.333 21.333v21.334h-32v-10.667h-42.667v64h42.667v-10.667h32z" />
    <glyph glyph-name="uniF10F" unicode="&#xf10f;" 
d="M0 448h512v-512h-512v512zM85.333 320v-298.667h298.667v-42.666h-298.667c-23.4668 0 -42.666 19.1992 -42.666 42.666v298.667h42.666zM426.667 405.333c23.4668 0 42.666 -19.1992 42.666 -42.666v-256c0 -23.4668 -19.1992 -42.667 -42.666 -42.667h-256
c-23.4668 0 -42.667 19.2002 -42.667 42.667v256c0 23.4668 19.2002 42.666 42.667 42.666h256zM405.333 213.333v42.667h-85.333v85.333h-42.667v-85.333h-85.333v-42.667h85.333v-85.333h42.667v85.333h85.333z" />
    <glyph glyph-name="uniF109" unicode="&#xf109;" 
d="M0 448h512v-512h-512v512zM405.333 362.667c23.4668 0 42.667 -19.2002 42.667 -42.667v-256c0 -23.4668 -19.2002 -42.667 -42.667 -42.667h-298.666c-23.6807 0 -42.667 19.2002 -42.667 42.667v256c0 23.4668 18.9863 42.667 42.667 42.667h298.666zM234.667 128v128
h-32v-53.333h-42.667v53.333h-32v-128h32v42.667h42.667v-42.667h32zM384 149.333v85.334c0 11.7334 -9.59961 21.333 -21.333 21.333h-64c-11.7334 0 -21.334 -9.59961 -21.334 -21.333v-85.334c0 -11.7334 9.60059 -21.333 21.334 -21.333h16v-32h32v32h16
c11.7334 0 21.333 9.59961 21.333 21.333zM309.333 160v64h42.667v-64h-42.667z" />
    <glyph glyph-name="uniF106" unicode="&#xf106;" 
d="M234.667 64l-181.334 128l181.334 128v-256zM245.333 192l181.334 128v-256zM0 448h512v-512h-512v512z" />
    <glyph glyph-name="uniF124" unicode="&#xf124;" 
d="M128 64v256l181.333 -128zM341.333 320h42.667v-256h-42.667v256zM0 448h512v-512h-512v512z" />
    <glyph glyph-name="uniF134" unicode="&#xf134;" 
d="M426.667 362.667c23.4668 0 42.666 -19.2002 42.666 -42.667v-256c0 -23.4668 -19.1992 -42.667 -42.666 -42.667h-341.334c-23.4668 0 -42.666 19.2002 -42.666 42.667l0.212891 256c0 23.4668 18.9863 42.667 42.4531 42.667h341.334zM320 64v85.333h-234.667v-85.333
h234.667zM320 170.667v85.333h-234.667v-85.333h234.667zM426.667 64v192h-85.334v-192h85.334zM0 448h512v-512h-512v512z" />
    <glyph glyph-name="uniF115" unicode="&#xf115;" 
d="M0 448h512v-512h-512v512zM256 405.333c117.76 0 213.333 -95.5732 213.333 -213.333s-95.5732 -213.333 -213.333 -213.333s-213.333 95.5732 -213.333 213.333s95.5732 213.333 213.333 213.333zM234.667 106.667v170.666h-42.667v-170.666h42.667zM320 106.667
v170.666h-42.667v-170.666h42.667z" />
    <glyph glyph-name="uniF12B" unicode="&#xf12b;" 
d="M0 448h512v-512h-512v512zM362.667 224l85.333 85.333v-234.666l-85.333 85.333v-74.667c0 -11.7334 -9.60059 -21.333 -21.334 -21.333h-256c-11.7334 0 -21.333 9.59961 -21.333 21.333v213.334c0 11.7334 9.59961 21.333 21.333 21.333h256
c11.7334 0 21.334 -9.59961 21.334 -21.333v-74.667z" />
    <glyph glyph-name="uniF131" unicode="&#xf131;" 
d="M352 192c0 -4.69336 -0.426758 -9.17285 -1.06641 -13.4404l-52.2666 52.2676v47.1465c31.5732 -15.7871 53.333 -48.2139 53.333 -85.9736zM405.333 192c0 67.627 -45.0127 124.8 -106.666 143.146v43.9473c85.5459 -19.4141 149.333 -95.7871 149.333 -187.094
c0 -32 -7.89355 -62.0801 -21.9736 -88.5332l-32.2129 32.2129c7.25293 17.4932 11.5195 36.2666 11.5195 56.3203zM91.0938 384l164.906 -164.906l192 -192l-27.0938 -27.0938l-43.5195 43.7334c-22.6133 -18.3467 -49.2803 -32 -78.7197 -38.6133v43.9463
c17.7061 5.33398 33.7061 14.0801 48 25.1738l-90.667 90.666v-143.573l-106.667 106.667h-85.333v128h100.906l-100.906 100.906zM256 362.667v-89.1738l-44.5869 44.5869zM0 448h512v-512h-512v512z" />
    <glyph glyph-name="uniF104" unicode="&#xf104;" 
d="M0 448h512v-512h-512v512zM405.333 384c23.4668 0 42.667 -19.2002 42.667 -42.667v-298.666c0 -23.4668 -19.2002 -42.667 -42.667 -42.667h-298.666c-23.4668 0 -42.667 19.2002 -42.667 42.667v298.666c0 23.4668 19.2002 42.667 42.667 42.667h298.666zM320 256
v42.667h-128v-213.334h128v42.667h-85.333v42.667h85.333v42.666h-85.333v42.667h85.333z" />
    <glyph glyph-name="uniF10B" unicode="&#xf10b;" 
d="M256 149.333c-35.4131 0 -64 28.5869 -64 64v128c0 35.4141 28.5869 64 64 64s64 -28.5859 64 -64l-0.212891 -128c0 -35.4131 -28.374 -64 -63.7871 -64zM369.066 213.333h36.2666c0 -72.96 -58.0264 -133.12 -128 -143.359v-69.9736h-42.666v69.9736
c-69.9736 10.4531 -128 70.6133 -128 143.359h36.2666c0 -64 54.1865 -108.8 113.066 -108.8s113.066 44.7998 113.066 108.8zM0 448h512v-512h-512v512z" />
    <glyph glyph-name="uniF12E" unicode="&#xf12e;" 
d="M394.667 192c0 -37.7598 -21.7607 -70.1865 -53.334 -85.7598v171.733c31.5732 -15.7871 53.334 -48.2139 53.334 -85.9736zM106.667 256h85.333l106.667 106.667v-341.334l-106.667 106.667h-85.333v128zM0 448h512v-512h-512v512z" />
    <glyph glyph-name="uniF129" unicode="&#xf129;" 
d="M0 448h512v-512h-512v512zM426.667 362.667c23.4668 0 42.666 -19.2002 42.666 -42.667v-256c0 -23.4668 -19.1992 -42.667 -42.666 -42.667h-341.334c-23.4668 0 -42.666 19.2002 -42.666 42.667v256c0 23.4668 19.1992 42.667 42.666 42.667h341.334zM165.547 101.547
c-24.96 24.96 -37.5469 57.5996 -37.5469 90.4531s12.5869 65.4932 37.333 90.667l-30.0801 30.0801c-33.2793 -33.2803 -49.9199 -77.0137 -49.9199 -120.747s16.6406 -87.4668 50.1338 -120.533zM256 106.667c47.1465 0 85.333 38.1865 85.333 85.333
s-38.1865 85.333 -85.333 85.333s-85.333 -38.1865 -85.333 -85.333s38.1865 -85.333 85.333 -85.333zM376.747 71.2529c33.2793 33.2803 49.9199 77.0137 49.9199 120.747s-16.6406 87.4668 -50.1338 120.533l-30.0801 -30.0801
c24.96 -24.96 37.5469 -57.5996 37.5469 -90.4531s-12.5869 -65.4932 -37.333 -90.667zM256 234.667c23.4668 0 42.667 -19.2002 42.667 -42.667s-19.2002 -42.667 -42.667 -42.667s-42.667 19.2002 -42.667 42.667s19.2002 42.667 42.667 42.667z" />
    <glyph glyph-name="uniF108" unicode="&#xf108;" 
d="M362.667 21.333c23.4668 0 42.666 19.2002 42.666 42.667h42.667c0 -47.1465 -38.1865 -85.333 -85.333 -85.333c-12.1602 0 -24.1074 2.55957 -34.9873 7.4668c-29.0127 15.1465 -45.4395 36.9062 -58.2393 75.7324c-6.82715 20.9072 -19.2002 30.5068 -36.4805 43.7334
c-18.5596 14.2939 -41.3867 32 -60.7998 67.2002c-14.7197 26.667 -22.8271 56.3203 -22.8271 83.2002c0 83.8398 65.4941 149.333 149.334 149.333s149.333 -65.4932 149.333 -149.333h-42.667c0 59.7334 -46.9326 106.667 -106.666 106.667
s-106.667 -46.9336 -106.667 -106.667c0 -19.8398 6.18652 -42.2402 17.4932 -62.7197c15.1465 -27.5205 32.6406 -40.96 49.4932 -53.9736c19.627 -15.1465 40.1074 -30.7197 50.9873 -64c10.666 -32 21.333 -42.8799 36.4795 -50.7734
c4.2666 -1.91992 10.0273 -3.2002 16.2139 -3.2002zM162.986 391.68c-34.7734 -34.5596 -56.3193 -82.5596 -56.3193 -135.68s21.5459 -101.12 56.1064 -135.894l-30.0801 -30.0801c-42.4531 42.4541 -68.6934 101.12 -68.6934 165.974s26.2402 123.52 68.6934 165.974z
M245.333 256c0 29.4404 23.8936 53.333 53.334 53.333c29.4395 0 53.333 -23.8926 53.333 -53.333s-23.8936 -53.333 -53.333 -53.333c-29.4404 0 -53.334 23.8926 -53.334 53.333zM0 448h512v-512h-512v512z" />
    <glyph glyph-name="uniF10A" unicode="&#xf10a;" 
d="M256 362.667c94.293 0 170.667 -76.374 170.667 -170.667c0 -33.4932 -9.81348 -64.6396 -26.4541 -90.8799l-31.1465 31.1465c9.60059 17.707 14.9336 38.1865 14.9336 59.7334c0 70.6133 -57.3867 128 -128 128v-64l-85.333 85.333l85.333 85.334v-64zM256 64v64
l85.333 -85.333l-85.333 -85.334v64c-94.293 0 -170.667 76.374 -170.667 170.667c0 33.4932 9.81348 64.6396 26.4541 90.8799l31.1465 -31.1465c-9.60059 -17.707 -14.9336 -38.1865 -14.9336 -59.7334c0 -70.6133 57.3867 -128 128 -128zM0 448h512v-512h-512v512z" />
    <glyph glyph-name="uniF10C" unicode="&#xf10c;" 
d="M256 149.333c-35.4131 0 -64 28.5869 -64 64v128c0 35.4141 28.5869 64 64 64s64 -28.5859 64 -64l-0.212891 -128c0 -35.4131 -28.374 -64 -63.7871 -64zM230.4 343.467v-132.267c0 -14.0801 11.5195 -25.6006 25.5996 -25.6006s25.3867 11.5205 25.3867 25.6006
l0.212891 132.267c0 14.0801 -11.5195 25.5996 -25.5996 25.5996s-25.5996 -11.5195 -25.5996 -25.5996zM369.066 213.333h36.2666c0 -72.96 -58.0264 -133.12 -128 -143.359v-69.9736h-42.666v69.9736c-69.9736 10.4531 -128 70.6133 -128 143.359h36.2666
c0 -64 54.1865 -108.8 113.066 -108.8s113.066 44.7998 113.066 108.8zM0 448h512v-512h-512v512z" />
    <glyph glyph-name="uniF130" unicode="&#xf130;" 
d="M149.333 256h85.334l106.666 106.667v-341.334l-106.666 106.667h-85.334v128zM0 448h512v-512h-512v512z" />
    <glyph glyph-name="uniF101" unicode="&#xf101;" 
d="M0 448h512v-512h-512v512zM234.667 85.333c0 11.7334 9.59961 21.334 21.333 21.334s21.333 -9.60059 21.333 -21.334s-9.59961 -21.333 -21.333 -21.333s-21.333 9.59961 -21.333 21.333zM234.667 384h21.333c106.026 0 192 -85.9736 192 -192s-85.9736 -192 -192 -192
c-106.24 0 -192 85.9736 -192 192c0 62.9336 30.293 118.4 77.0137 153.387v0.426758l145.066 -145.066l-30.0801 -30.0801l-115.627 115.626c-21.1201 -25.5996 -33.7061 -58.4531 -33.7061 -94.293c0 -82.5596 66.7734 -149.333 149.333 -149.333
s149.333 66.7734 149.333 149.333c0 75.3066 -55.6797 137.173 -128 147.627v-40.96h-42.666v85.333zM384 192c0 -11.7334 -9.59961 -21.333 -21.333 -21.333s-21.334 9.59961 -21.334 21.333s9.60059 21.333 21.334 21.333s21.333 -9.59961 21.333 -21.333zM128 192
c0 11.7334 9.59961 21.333 21.333 21.333s21.334 -9.59961 21.334 -21.333s-9.60059 -21.333 -21.334 -21.333s-21.333 9.59961 -21.333 21.333z" />
    <glyph glyph-name="uniF110" unicode="&#xf110;" 
d="M0 448h512v-512h-512v512zM85.333 320v-298.667h298.667v-42.666h-298.667c-23.4668 0 -42.666 19.1992 -42.666 42.666v298.667h42.666zM426.667 405.333c23.4668 0 42.666 -19.1992 42.666 -42.666v-256c0 -23.4668 -19.1992 -42.667 -42.666 -42.667h-256
c-23.4668 0 -42.667 19.2002 -42.667 42.667v256c0 23.4668 19.2002 42.666 42.667 42.666h256zM405.333 213.333v42.667h-213.333v-42.667h213.333zM320 128v42.667h-128v-42.667h128zM405.333 298.667v42.666h-213.333v-42.666h213.333z" />
    <glyph glyph-name="uniF122" unicode="&#xf122;" 
d="M0 448h512v-512h-512v512zM256 341.333c94.293 0 170.667 -76.373 170.667 -170.666c0 -94.2939 -76.374 -170.667 -170.667 -170.667s-170.667 76.373 -170.667 170.667h42.667c0 -70.6133 57.3867 -128 128 -128s128 57.3867 128 128s-57.3867 128 -128 128v-85.334
l-106.667 106.667l106.667 106.667v-85.334z" />
    <glyph glyph-name="uniF132" unicode="&#xf132;" 
d="M0 448h512v-512h-512v512zM363.805 192c0 -36.9775 -20.7646 -68.8359 -50.916 -85.333v170.666c30.4355 -16.4971 50.916 -48.3555 50.916 -85.333zM56.8887 248.889h85.334l113.777 113.778v-341.334l-113.777 113.778h-85.334v113.777zM312.889 391.111
c89.6006 -22.1865 156.444 -102.4 156.444 -199.111s-66.8438 -176.925 -156.444 -199.111v42.667c65.9912 21.0488 113.778 83.3418 113.778 156.444s-47.7871 135.396 -113.778 156.444v42.667z" />
    <glyph glyph-name="uniF11C" unicode="&#xf11c;" 
d="M0 448h512v-512h-512v512zM85.333 320v-298.667h298.667v-42.666h-298.667c-23.4668 0 -42.666 19.1992 -42.666 42.666v298.667h42.666zM426.667 405.333c23.4668 0 42.666 -19.1992 42.666 -42.666v-256c0 -23.4668 -19.1992 -42.667 -42.666 -42.667h-256
c-23.4668 0 -42.667 19.2002 -42.667 42.667v256c0 23.4668 19.2002 42.666 42.667 42.666h256zM405.333 213.333v42.667h-85.333v85.333h-42.667v-85.333h-85.333v-42.667h85.333v-85.333h42.667v85.333h85.333z" />
    <glyph glyph-name="uniF120" unicode="&#xf120;" 
d="M0 448h512v-512h-512v512zM149.333 298.667v-85.334h-42.666v128h256v64l85.333 -85.333l-85.333 -85.333v64h-213.334zM362.667 85.333v85.334h42.666v-128h-256v-64l-85.333 85.333l85.333 85.333v-64h213.334z" />
    <glyph glyph-name="uniF11F" unicode="&#xf11f;" 
d="M0 448h512v-512h-512v512zM448 341.333h42.667v-298.666h-42.667v298.666zM362.667 42.667v298.666h42.666v-298.666h-42.666zM298.667 341.333c11.7334 0 21.333 -9.59961 21.333 -21.333v-256c0 -11.7334 -9.59961 -21.333 -21.333 -21.333h-256
c-11.7334 0 -21.334 9.59961 -21.334 21.333v256c0 11.7334 9.60059 21.333 21.334 21.333h256zM170.667 282.667c-26.4541 0 -48 -21.5469 -48 -48c0 -26.4541 21.5459 -48 48 -48c26.4531 0 48 21.5459 48 48c0 26.4531 -21.5469 48 -48 48zM266.667 85.333v16
c0 32 -64 48 -96 48s-96 -16 -96 -48v-16h192z" />
    <glyph glyph-name="uniF105" unicode="&#xf105;" 
d="M85.333 64v256l181.334 -128zM277.333 320l181.334 -128l-181.334 -128v256zM0 448h512v-512h-512v512z" />
    <glyph glyph-name="uniF125" unicode="&#xf125;" 
d="M128 320h42.667v-256h-42.667v256zM202.667 192l181.333 128v-256zM0 448h512v-512h-512v512z" />
    <glyph glyph-name="uniF12A" unicode="&#xf12a;" 
d="M0 448h512v-512h-512v512zM85.333 320v-298.667h298.667v-42.666h-298.667c-23.4668 0 -42.666 19.1992 -42.666 42.666v298.667h42.666zM426.667 405.333c23.4668 0 42.666 -19.1992 42.666 -42.666v-256c0 -23.4668 -19.1992 -42.667 -42.666 -42.667h-256
c-23.4668 0 -42.667 19.2002 -42.667 42.667v256c0 23.4668 19.2002 42.666 42.667 42.666h256zM256 138.667l128 96l-128 96v-192z" />
    <glyph glyph-name="uniF117" unicode="&#xf117;" 
d="M170.667 341.333l234.666 -149.333l-234.666 -149.333v298.666zM0 448h512v-512h-512v512z" />
    <glyph glyph-name="uniF133" unicode="&#xf133;" 
d="M64 256h85.333l106.667 106.667v-341.334l-106.667 106.667h-85.333v128zM352 192c0 -37.7598 -21.7598 -70.1865 -53.333 -85.7598v171.733c31.5732 -15.7871 53.333 -48.2139 53.333 -85.9736zM298.667 379.094c85.5459 -19.4141 149.333 -95.7871 149.333 -187.094
s-63.7871 -167.68 -149.333 -187.094v43.9473c61.6533 18.3467 106.666 75.5195 106.666 143.146s-45.0127 124.8 -106.666 143.146v43.9473zM0 448h512v-512h-512v512z" />
    <glyph glyph-name="uniF10D" unicode="&#xf10d;" 
d="M0 448h512v-512h-512v512zM0 448v-512h512v512h-512zM405.333 213.333c0 -25.3867 -7.25293 -49.0664 -19.1992 -69.9727l-26.2402 26.2393c5.75977 13.2275 9.17285 27.9473 9.17285 43.7334h36.2666zM319.573 209.707l-127.573 127.786v3.83984
c0 35.4141 28.5869 64 64 64s64 -28.5859 64 -64v-128c0 -1.2793 -0.426758 -2.34668 -0.426758 -3.62598zM91.0938 384l356.906 -356.906l-27.0938 -27.0938l-89.3867 89.1729c-16.4258 -9.59961 -34.7725 -16.4258 -54.1865 -19.1992v-69.9736h-42.666v69.9736
c-69.9736 10.4531 -128 70.6133 -128 143.359h36.2666c0 -64 54.1865 -108.8 113.066 -108.8c17.2803 0 34.1338 4.05371 49.2803 11.0938l-35.4141 35.4131c-4.47949 -1.06641 -9.17285 -1.70703 -13.8662 -1.70703c-35.4131 0 -63.7871 28.5869 -63.7871 64v15.3604
l-128.213 128.213z" />
    <glyph glyph-name="uniF11B" unicode="&#xf11b;" 
d="M0 448h512v-512h-512v512zM298.667 234.667v-42.667h-256v42.667h256zM298.667 320v-42.667h-256v42.667h256zM384 149.333h85.333v-42.666h-85.333v-85.334h-42.667v85.334h-85.333v42.666h85.333v85.334h42.667v-85.334zM42.667 106.667v42.666h170.666v-42.666
h-170.666z" />
    <glyph glyph-name="uniF100" unicode="&#xf100;" 
d="M0 448h512v-512h-512v512zM256 405.333c117.76 0 213.333 -95.5732 213.333 -213.333s-95.5732 -213.333 -213.333 -213.333s-213.333 95.5732 -213.333 213.333s95.5732 213.333 213.333 213.333zM256 96c53.1201 0 96 42.8799 96 96s-42.8799 96 -96 96
s-96 -42.8799 -96 -96s42.8799 -96 96 -96zM256 213.333c11.7334 0 21.333 -9.59961 21.333 -21.333s-9.59961 -21.333 -21.333 -21.333s-21.333 9.59961 -21.333 21.333s9.59961 21.333 21.333 21.333z" />
    <glyph glyph-name="uniF103" unicode="&#xf103;" 
d="M0 448h512v-512h-512v512zM213.333 21.333v341.334h85.334v-341.334h-85.334zM85.333 21.333v170.667h85.334v-170.667h-85.334zM341.333 256h85.334v-234.667h-85.334v234.667z" />
    <glyph glyph-name="uniF116" unicode="&#xf116;" 
d="M0 448h512v-512h-512v512zM192 106.667v170.666h42.667v-170.666h-42.667zM256 405.333c117.76 0 213.333 -95.5732 213.333 -213.333s-95.5732 -213.333 -213.333 -213.333s-213.333 95.5732 -213.333 213.333s95.5732 213.333 213.333 213.333zM256 21.333
c94.0801 0 170.667 76.5869 170.667 170.667s-76.5869 170.667 -170.667 170.667s-170.667 -76.5869 -170.667 -170.667s76.5869 -170.667 170.667 -170.667zM277.333 106.667v170.666h42.667v-170.666h-42.667z" />
    <glyph glyph-name="uniF11E" unicode="&#xf11e;" 
d="M69.1201 316.8l269.653 109.867l14.5068 -35.4141l-176.214 -71.2529h249.601c23.6797 0 42.666 -18.9863 42.666 -42.667v-256c0 -23.4668 -18.9863 -42.666 -42.666 -42.666h-341.334c-23.6797 0 -42.666 19.1992 -42.666 42.666v256
c0 17.707 10.8799 33.4941 26.4531 39.4668zM149.333 21.333c35.4141 0 64 28.5869 64 64c0 35.4141 -28.5859 64 -64 64c-35.4131 0 -64 -28.5859 -64 -64c0 -35.4131 28.5869 -64 64 -64zM426.667 192v85.333h-341.334v-85.333h256v42.667h42.667v-42.667h42.667zM0 448
h512v-512h-512v512z" />
    <glyph glyph-name="uniF107" unicode="&#xf107;" 
d="M0 448h512v-512h-512v512zM320 288l-64 -64l-64 64v117.333h128v-117.333zM160 256l64 -64l-64 -64h-117.333v128h117.333zM192 96l64 64l64 -64v-117.333h-128v117.333zM352 256h117.333v-128h-117.333l-64 64z" />
    <glyph glyph-name="uniF121" unicode="&#xf121;" 
d="M0 448h512v-512h-512v512zM149.333 298.667v-85.334h-42.666v128h256v64l85.333 -85.333l-85.333 -85.333v64h-213.334zM362.667 85.333v85.334h42.666v-128h-256v-64l-85.333 85.333l85.333 85.333v-64h213.334zM277.333 128h-32v85.333h-32v21.334l42.667 21.333
h21.333v-128z" />
    <glyph glyph-name="uniF10E" unicode="&#xf10e;" 
d="M384 362.667h85.333v-298.667c0 -23.4668 -19.1992 -42.667 -42.666 -42.667h-341.334c-23.4668 0 -42.666 19.2002 -42.666 42.667l0.212891 256c0 23.4668 18.9863 42.667 42.4531 42.667h21.334l42.666 -85.334h64l-42.666 85.334h42.666l42.667 -85.334h64
l-42.667 85.334h42.667l42.667 -85.334h64zM0 448h512v-512h-512v512z" />
    <glyph glyph-name="uniF118" unicode="&#xf118;" 
d="M0 448h512v-512h-512v512zM256 405.333c117.76 0 213.333 -95.5732 213.333 -213.333s-95.5732 -213.333 -213.333 -213.333s-213.333 95.5732 -213.333 213.333s95.5732 213.333 213.333 213.333zM213.333 96l128 96l-128 96v-192z" />
    <glyph glyph-name="uniF119" unicode="&#xf119;" 
d="M0 448h512v-512h-512v512zM213.333 96v192l128 -96zM256 405.333c117.76 0 213.333 -95.5732 213.333 -213.333s-95.5732 -213.333 -213.333 -213.333s-213.333 95.5732 -213.333 213.333s95.5732 213.333 213.333 213.333zM256 21.333
c94.0801 0 170.667 76.5869 170.667 170.667s-76.5869 170.667 -170.667 170.667s-170.667 -76.5869 -170.667 -170.667s76.5869 -170.667 170.667 -170.667z" />
    <glyph glyph-name="uniF11D" unicode="&#xf11d;" 
d="M0 448h512v-512h-512v512zM320 320v-42.667h-256v42.667h256zM320 234.667v-42.667h-256v42.667h256zM64 106.667v42.666h170.667v-42.666h-170.667zM362.667 320h106.666v-42.667h-64v-192c0 -35.4131 -28.5859 -64 -64 -64c-35.4131 0 -64 28.5869 -64 64
c0 35.4141 28.5869 64 64 64c7.4668 0 14.7207 -1.49316 21.334 -3.83984v174.507z" />
  </font>
</defs>
</svg>
