<?xml version="1.0" standalone="no"?>
<!DOCTYPE svg PUBLIC "-//W3C//DTD SVG 1.1//EN" "http://www.w3.org/Graphics/SVG/1.1/DTD/svg11.dtd" >
<!--
2015-5-9: Created with FontForge (http://fontforge.org)
-->
<svg xmlns="http://www.w3.org/2000/svg" xmlns:xlink="http://www.w3.org/1999/xlink" version="1.1">
<metadata>
Created by FontForge 20150401 at Sat May  9 15:37:52 2015
 By Taras Remez
Copyright (c) 2015, Taras Remez
</metadata>
<defs>
<font id="font-device" horiz-adv-x="512" >
  <font-face 
    font-family="font-device"
    font-weight="400"
    font-stretch="normal"
    units-per-em="512"
    panose-1="2 0 5 3 0 0 0 0 0 0"
    ascent="448"
    descent="-64"
    bbox="-13184 -64234.7 16682.7 61717.3"
    underline-thickness="25.6"
    underline-position="-51.2"
    unicode-range="U+0020-F17D"
  />
    <missing-glyph />
    <glyph glyph-name="space" unicode=" " horiz-adv-x="200" 
 />
    <glyph glyph-name="uniF141" unicode="&#xf141;" 
d="M284.444 163.556v-170.667h170.667v170.667h-170.667zM56.8887 220.444v170.667h170.667v-170.667h-170.667zM56.8887 -7.11133v170.667h170.667v-170.667h-170.667zM284.444 -7.11133v170.667h170.667v-170.667h-170.667zM490.667 305.777l-120.89 -120.889
l-120.889 120.889l120.889 120.89zM0 448h512v-512h-512v512z" />
    <glyph glyph-name="uniF11F" unicode="&#xf11f;" 
d="M334.293 362.667c15.5732 0 28.374 -12.8008 28.374 -28.374v-56.96h-85.334v21.334l-11.3066 -21.334h-116.693v56.96c0 15.5732 12.8008 28.374 28.374 28.374h35.626v42.666h85.334v-42.666h35.626zM277.333 181.333v96h85.334v-270.293
c0 -15.5732 -12.8008 -28.373 -28.5869 -28.373h-156.373c-15.5732 0 -28.374 12.7998 -28.374 28.373v270.293h116.693l-74.0264 -138.666h42.667v-117.334l85.333 160h-42.667zM0 448h512v-512h-512v512z" />
    <glyph glyph-name="uniF10C" unicode="&#xf10c;" 
d="M0 448h512v-512h-512v512zM369.777 334.223v-128h-227.555v128c0 15.6436 12.7998 28.4443 28.4443 28.4443h42.666v42.666h85.334v-42.666h42.666c15.6445 0 28.4443 -12.8008 28.4443 -28.4443zM142.223 206.223h227.555v-184.89
c0 -15.6445 -12.7998 -28.4443 -28.4443 -28.4443h-170.666c-15.6445 0 -28.4443 12.7998 -28.4443 28.4443v184.89z" />
    <glyph glyph-name="uniF12C" unicode="&#xf12c;" 
d="M0 448h512v-512h-512v512zM231.467 178.134l24.5332 77.8662l24.5332 -77.8662h-49.0664zM426.667 262.613l70.6133 -70.6133l-70.6133 -70.6133v-100.054h-100.054l-70.6133 -70.6133l-70.6133 70.6133h-100.054v100.054l-70.6133 70.6133l70.6133 70.6133v100.054
h100.054l70.6133 70.6133l70.6133 -70.6133h100.054v-100.054zM305.066 106.667h40.5332l-68.2666 192h-42.666l-68.2666 -192h40.5332l14.9326 42.666h68.2676z" />
    <glyph glyph-name="uniF14F" unicode="&#xf14f;" 
d="M28.4443 -7.11133l426.667 426.667v-426.667h-426.667zM28.4443 -7.11133l312.889 312.889v-312.889h-312.889zM0 448h512v-512h-512v512z" />
    <glyph glyph-name="uniF11B" unicode="&#xf11b;" 
d="M334.293 362.667c15.5732 0 28.374 -12.8008 28.374 -28.374v-120.96h-85.334v85.334l-45.4395 -85.334h-82.5605v120.96c0 15.5732 12.8008 28.374 28.374 28.374h35.626v42.666h85.334v-42.666h35.626zM277.333 181.333v32h85.334v-206.293
c0 -15.5732 -12.8008 -28.373 -28.5869 -28.373h-156.373c-15.5732 0 -28.374 12.7998 -28.374 28.373v206.293h82.5605l-39.8936 -74.666h42.667v-117.334l85.333 160h-42.667zM0 448h512v-512h-512v512z" />
    <glyph glyph-name="uniF146" unicode="&#xf146;" 
d="M0 448h512v-512h-512v512zM351.573 394.24l-28.373 -28.1602l-81.2803 81.2803l14.0801 0.639648c134.187 0 244.054 -103.253 254.934 -234.667h-32c-7.68066 80.2139 -57.6006 147.84 -127.36 180.907zM218.24 410.667l256.427 -256.427
c12.5859 -12.374 12.5859 -32.6406 0 -45.2266l-135.681 -135.681c-12.373 -12.5859 -32.6396 -12.5859 -45.2266 0l-256.427 256.427c-12.5859 12.374 -12.5859 32.6406 0 45.2266l135.681 135.681c12.373 12.5859 32.6396 12.5859 45.2266 0zM316.373 -4.05371
l135.681 135.681l-256.427 256.427l-135.681 -135.681zM160.427 -10.2402l28.373 28.1602l81.2803 -81.2803l-14.0801 -0.639648c-134.187 0 -244.054 103.253 -254.934 234.667h32c7.68066 -80.2139 57.6006 -148.054 127.36 -180.907z" />
    <glyph glyph-name="uniF104" unicode="&#xf104;" 
d="M0 448h512v-512h-512v512zM0 448h512v-512h-512v512zM0 448v-512h512v512h-512zM277.333 256l170.667 -106.667v-42.666l-67.627 21.1201l-167.04 167.04v78.5059c0 17.707 14.2939 32 32 32c17.707 0 32 -14.293 32 -32v-117.333zM64 335.573l27.0938 27.0938
l335.573 -335.573l-27.0938 -27.0938l-122.24 122.24v-79.5732l42.667 -32v-32l-74.667 21.333l-74.666 -21.333v32l42.666 32v117.333l-170.666 -53.333v42.666l127.786 79.7871z" />
    <glyph glyph-name="uniF125" unicode="&#xf125;" 
d="M0 448h512v-512h-512v512zM334.293 362.667c15.5732 0 28.374 -12.8008 28.374 -28.374v-327.253c0 -15.5732 -12.8008 -28.373 -28.5869 -28.373h-156.373c-15.5732 0 -28.374 12.7998 -28.374 28.5859v327.04c0 15.5732 12.8008 28.374 28.374 28.374h35.626v42.666
h85.334v-42.666h35.626z" />
    <glyph glyph-name="uniF14E" unicode="&#xf14e;" 
d="M42.667 -21.333l426.666 426.666v-426.666h-426.666zM298.667 234.667v-256h-256zM0 448h512v-512h-512v512z" />
    <glyph glyph-name="uniF161" unicode="&#xf161;" 
d="M448 426.667v-366.507l-183.253 183.253zM101.76 352l367.573 -367.573l-27.0928 -27.0938l-42.667 42.667h-378.24l189.014 189.227l-135.68 135.68zM0 448h512v-512h-512v512z" />
    <glyph glyph-name="uniF152" unicode="&#xf152;" 
d="M42.667 -21.333l426.666 426.666v-426.666h-426.666zM0 448h512v-512h-512v512z" />
    <glyph glyph-name="uniF132" unicode="&#xf132;" 
d="M0 448h512v-512h-512v512zM85.333 320v-234.667h213.334v-64h-298.667v64h42.667v234.667c0 23.4668 19.1992 42.667 42.666 42.667h384v-42.667h-384zM490.667 277.333c11.7334 0 21.333 -9.59961 21.333 -21.333v-213.333c0 -11.7334 -9.59961 -21.334 -21.333 -21.334
h-128c-11.7334 0 -21.334 9.60059 -21.334 21.334v213.333c0 11.7334 9.60059 21.333 21.334 21.333h128zM469.333 85.333v149.334h-85.333v-149.334h85.333z" />
    <glyph glyph-name="uniF121" unicode="&#xf121;" 
d="M0 448h512v-512h-512v512zM334.293 362.667c15.5732 0 28.374 -12.8008 28.374 -28.374v-327.253c0 -15.5732 -12.8008 -28.373 -28.5869 -28.373h-156.373c-15.5732 0 -28.374 12.7998 -28.374 28.5859v327.04c0 15.5732 12.8008 28.374 28.374 28.374h35.626v42.666
h85.334v-42.666h35.626zM234.667 21.333l85.333 160h-42.667v117.334l-85.333 -160h42.667v-117.334z" />
    <glyph glyph-name="uniF128" unicode="&#xf128;" 
d="M0 448h512v-512h-512v512zM377.813 283.52l-91.7334 -91.5195l91.7334 -91.5195l-121.813 -121.813h-21.333v161.92l-97.9199 -97.9199l-30.0801 30.0801l119.253 119.253l-119.253 119.253l30.0801 30.0801l97.9199 -97.9199v161.92h21.333zM277.333 323.627v-80.2139
l40.1074 40.1064zM317.44 100.48l-40.1074 40.1064v-80.2139z" />
    <glyph glyph-name="uniF171" unicode="&#xf171;" 
d="M256.197 14.9658l-0.197266 -0.196289l-0.197266 0.393555l-247.532 308.382c9.45215 7.08887 104.764 85.0703 247.729 85.0703s238.277 -77.9814 247.729 -85.0703zM0 448h512v-472.615h-512v472.615z" />
    <glyph glyph-name="uniF17C" unicode="&#xf17c;" 
d="M0 448h512v-512h-512v512zM437.333 245.333c-58.8799 0 -106.666 -47.7861 -106.666 -106.666v-60.374l-74.667 -99.626l-256 341.333c71.2529 53.5469 160 85.333 256 85.333s184.747 -31.7861 256 -85.333l-57.3867 -76.373
c-5.54688 0.853516 -11.3066 1.70605 -17.2803 1.70605zM490.667 106.667c11.7334 0 21.333 -9.60059 21.333 -21.334v-85.333c0 -11.7334 -9.59961 -21.333 -21.333 -21.333h-106.667c-11.7334 0 -21.333 9.59961 -21.333 21.333v85.333
c0 11.7334 9.59961 21.334 21.333 21.334v32c0 29.4395 23.8936 53.333 53.333 53.333c29.4404 0 53.334 -23.8936 53.334 -53.333v-32zM469.333 106.667v32c0 17.7061 -14.293 32 -32 32c-17.7061 0 -32 -14.2939 -32 -32v-32h64z" />
    <glyph glyph-name="uniF12B" unicode="&#xf12b;" 
d="M0 448h512v-512h-512v512zM303.787 191.787l49.7061 49.4932c5.75977 -15.3604 9.17383 -31.7871 9.17383 -49.2803s-3.41406 -34.3467 -9.38672 -49.707zM416.64 304.854c19.8408 -32.4268 31.3604 -70.4004 31.5732 -110.72
c0 -41.6006 -12.1592 -80.4268 -32.8525 -113.28l-25.6006 25.5996c13.2266 25.6006 20.9072 54.8271 20.9072 85.7598c0 30.9336 -7.4668 59.9473 -20.9072 85.7607zM335.146 283.52l-91.7334 -91.5195l91.7334 -91.5195l-121.813 -121.813h-21.333v161.92
l-97.9199 -97.9199l-30.0801 30.0801l119.253 119.253l-119.253 119.253l30.0801 30.0801l97.9199 -97.9199v161.92h21.333zM234.667 323.627v-80.2139l40.1064 40.1064zM274.773 100.48l-40.1064 40.1064v-80.2139z" />
    <glyph glyph-name="uniF117" unicode="&#xf117;" 
d="M334.293 362.667c15.5732 0 28.374 -12.8008 28.374 -28.374v-195.626h-65.4941l22.8271 42.666h-42.667v117.334l-85.333 -160h-42.667v195.626c0 15.5732 12.8008 28.374 28.374 28.374h35.626v42.666h85.334v-42.666h35.626zM234.667 21.333l62.5059 117.334h65.4941
v-131.627c0 -15.5732 -12.8008 -28.373 -28.5869 -28.373h-156.373c-15.5732 0 -28.374 12.7998 -28.374 28.373v131.627h85.334v-117.334zM0 448h512v-512h-512v512z" />
    <glyph glyph-name="uniF109" unicode="&#xf109;" 
d="M0 448h512v-512h-512v512zM362.667 334.293v-206.293h-213.334v206.293c0 15.5732 12.8008 28.374 28.374 28.374h35.626v42.666h85.334v-42.666h35.626c15.5732 0 28.374 -12.8008 28.374 -28.374zM149.333 128h213.334v-120.96
c0 -15.5732 -12.8008 -28.373 -28.5869 -28.373h-156.373c-15.5732 0 -28.374 12.7998 -28.374 28.373v120.96z" />
    <glyph glyph-name="uniF175" unicode="&#xf175;" 
d="M256.197 14.9658h-0.394531l-185.698 231.385c7.28613 5.31738 78.7695 63.8037 185.896 63.8037s178.609 -58.4863 185.896 -63.8037zM256.197 14.9658l-0.197266 -0.196289l-0.197266 0.393555l-247.532 308.382c9.45215 7.08887 104.764 85.0703 247.729 85.0703
s238.277 -77.9814 247.729 -85.0703zM524.604 290.462h-130.758v-162.855zM433.23 14.7695v39.3848h39.3848v-39.3848h-39.3848zM433.23 251.077h39.3848v-157.539h-39.3848v157.539zM0 448h512v-472.615h-512v472.615z" />
    <glyph glyph-name="uniF179" unicode="&#xf179;" 
d="M0 448h512v-512h-512v512zM42.667 21.333v85.334h426.666v-85.334h-426.666zM85.333 85.333v-42.666h42.667v42.666h-42.667zM42.667 362.667h426.666v-85.334h-426.666v85.334zM128 298.667v42.666h-42.667v-42.666h42.667zM42.667 149.333v85.334h426.666v-85.334
h-426.666zM85.333 213.333v-42.666h42.667v42.666h-42.667z" />
    <glyph glyph-name="uniF159" unicode="&#xf159;" 
d="M0 448h512v-512h-512v512zM28.4443 -7.11133l312.889 312.889v-312.889h-312.889zM455.111 419.556v-113.778h-113.778zM341.333 -7.11133h-312.889l312.889 312.889v-312.889zM398.223 248.889h56.8887v-142.222h-56.8887v142.222zM398.223 -7.11133v56.8887h56.8887
v-56.8887h-56.8887z" />
    <glyph glyph-name="uniF163" unicode="&#xf163;" 
d="M256.213 -10.4531l-0.212891 -0.213867l-0.212891 0.213867l-248.107 309.12c9.60059 7.25293 104.96 85.333 248.32 85.333c143.146 0 238.72 -78.0801 248.32 -85.333zM0 448h512v-512h-512v512z" />
    <glyph glyph-name="uniF129" unicode="&#xf129;" 
d="M0 448h512v-512h-512v512zM149.333 192l-42.666 -42.667l-42.667 42.667l42.667 42.667zM377.813 283.52l-91.7334 -91.5195l91.7334 -91.5195l-121.813 -121.813h-21.333v161.92l-97.9199 -97.9199l-30.0801 30.0801l119.253 119.253l-119.253 119.253l30.0801 30.0801
l97.9199 -97.9199v161.92h21.333zM277.333 323.627v-80.2139l40.1074 40.1064zM317.44 100.48l-40.1074 40.1064v-80.2139zM405.333 234.667l42.667 -42.667l-42.667 -42.667l-42.666 42.667z" />
    <glyph glyph-name="uniF142" unicode="&#xf142;" 
d="M277.333 170.667h170.667v-170.667h-170.667v170.667zM64 0v170.667h170.667v-170.667h-170.667zM64 384h170.667v-170.667h-170.667v170.667zM355.413 411.946l120.747 -120.533l-120.747 -120.746l-120.746 120.746zM0 448h512v-512h-512v512z" />
    <glyph glyph-name="uniF11A" unicode="&#xf11a;" 
d="M0 448h512v-512h-512v512zM341.333 362.667c15.6445 0 28.4443 -12.8008 28.4443 -28.4443v-128h-99.5547v113.777l-56.8896 -113.777h-71.1104v128c0 15.6436 12.7998 28.4443 28.4443 28.4443h42.666v42.666h85.334v-42.666h42.666zM241.777 35.5557l85.334 170.667
h42.666v-184.89c0 -15.6445 -12.7998 -28.4443 -28.4443 -28.4443h-170.666c-15.6445 0 -28.4443 12.7998 -28.4443 28.4443v184.89h71.1104l-28.4443 -56.8896h56.8887v-113.777z" />
    <glyph glyph-name="uniF114" unicode="&#xf114;" 
d="M0 448h512v-512h-512v512zM341.333 362.667c15.6445 0 28.4443 -12.8008 28.4443 -28.4443v-241.778h-99.5547l56.8887 113.778h-56.8887v113.777l-85.334 -170.667h56.8887v-56.8887h-99.5547v241.778c0 15.6436 12.7998 28.4443 28.4443 28.4443h42.666v42.666h85.334
v-42.666h42.666zM241.777 35.5557l28.4453 56.8887h99.5547v-71.1113c0 -15.6445 -12.7998 -28.4443 -28.4443 -28.4443h-170.666c-15.6445 0 -28.4443 12.7998 -28.4443 28.4443v71.1113h99.5547v-56.8887z" />
    <glyph glyph-name="uniF14B" unicode="&#xf14b;" 
d="M28.4443 -7.11133l426.667 426.667v-426.667h-426.667zM28.4443 -7.11133l199.111 199.111v-199.111h-199.111zM0 448h512v-512h-512v512z" />
    <glyph glyph-name="uniF111" unicode="&#xf111;" 
d="M0 448h512v-512h-512v512zM362.667 334.293v-56.96h-213.334v56.96c0 15.5732 12.8008 28.374 28.374 28.374h35.626v42.666h85.334v-42.666h35.626c15.5732 0 28.374 -12.8008 28.374 -28.374zM149.333 277.333h213.334v-270.293
c0 -15.5732 -12.8008 -28.373 -28.5869 -28.373h-156.373c-15.5732 0 -28.374 12.7998 -28.374 28.373v270.293z" />
    <glyph glyph-name="uniF122" unicode="&#xf122;" 
d="M341.333 362.667c15.6445 0 28.4443 -12.8008 28.4443 -28.4443v-312.89c0 -15.6445 -12.7998 -28.4443 -28.4443 -28.4443h-170.666c-15.6445 0 -28.4443 12.7998 -28.4443 28.4443v312.89c0 15.6436 12.7998 28.4443 28.4443 28.4443h42.666v42.666h85.334v-42.666
h42.666zM0 448h512v-512h-512v512z" />
    <glyph glyph-name="uniF155" unicode="&#xf155;" 
d="M341.333 -7.11133h-312.889l312.889 312.889v-312.889zM341.333 305.777l113.778 113.778v-113.778h-113.778zM398.223 -7.11133v56.8887h56.8887v-56.8887h-56.8887zM227.556 -7.11133h-199.111l199.111 199.111v-199.111zM398.223 248.889h56.8887v-142.222h-56.8887
v142.222zM0 448h512v-512h-512v512z" />
    <glyph glyph-name="uniF149" unicode="&#xf149;" 
d="M28.4443 -7.11133l426.667 426.667v-426.667h-426.667zM0 448h512v-512h-512v512z" />
    <glyph glyph-name="uniF10F" unicode="&#xf10f;" 
d="M0 448h512v-512h-512v512zM362.667 334.293v-78.293h-213.334v78.293c0 15.5732 12.8008 28.374 28.374 28.374h35.626v42.666h85.334v-42.666h35.626c15.5732 0 28.374 -12.8008 28.374 -28.374zM149.333 256h213.334v-248.96
c0 -15.5732 -12.8008 -28.373 -28.5869 -28.373h-156.373c-15.5732 0 -28.374 12.7998 -28.374 28.373v248.96z" />
    <glyph glyph-name="uniF178" unicode="&#xf178;" 
d="M256 369.23c-83.6924 0 -150.056 -29.7354 -190.425 -54.1533l190.425 -237.293l190.621 237.293c-40.5654 24.418 -106.929 54.1533 -190.621 54.1533zM256 408.615c142.966 0 238.277 -77.9814 247.729 -85.0703l-247.532 -308.579l-0.197266 -0.196289
l-0.197266 0.393555l-247.532 308.382c9.45215 7.08887 104.764 85.0703 247.729 85.0703zM0 448h512v-472.615h-512v472.615z" />
    <glyph glyph-name="uniF10B" unicode="&#xf10b;" 
d="M0 448h512v-512h-512v512zM362.667 334.293v-163.626h-213.334v163.626c0 15.5732 12.8008 28.374 28.374 28.374h35.626v42.666h85.334v-42.666h35.626c15.5732 0 28.374 -12.8008 28.374 -28.374zM149.333 170.667h213.334v-163.627
c0 -15.5732 -12.8008 -28.373 -28.5869 -28.373h-156.373c-15.5732 0 -28.374 12.7998 -28.374 28.373v163.627z" />
    <glyph glyph-name="uniF107" unicode="&#xf107;" 
d="M0 448h512v-512h-512v512zM149.333 85.333h213.334v-78.293c0 -15.5732 -12.8008 -28.373 -28.5869 -28.373h-156.373c-15.5732 0 -28.374 12.7998 -28.374 28.373v78.293zM362.667 334.293v-248.96h-213.334v248.96c0 15.5732 12.8008 28.374 28.374 28.374h35.626
v42.666h85.334v-42.666h35.626c15.5732 0 28.374 -12.8008 28.374 -28.374z" />
    <glyph glyph-name="uniF137" unicode="&#xf137;" 
d="M0 448h512v-512h-512v512zM446.72 213.333h43.9473v-42.666h-43.7334c-2.77344 -24.1074 -10.0273 -46.7207 -20.6934 -67.2002l-32 32c7.04004 17.2803 11.0928 36.4795 11.0928 56.5332c0 82.5596 -66.7734 149.333 -149.333 149.333
c-20.0537 0 -39.2529 -4.05273 -56.7471 -11.3066l-32 32c20.6934 10.8799 43.3066 18.1338 67.4141 20.6934v43.9473h42.666v-43.9473c88.96 -9.81348 159.573 -80.4268 169.387 -169.387zM64 356.906l27.0938 27.0938l356.906 -356.906l-27.0938 -27.0938
l-43.5195 43.5195c-27.9463 -22.8262 -62.293 -37.9727 -100.054 -42.2393v-43.9473h-42.666v43.9473c-88.96 9.81348 -159.573 80.4268 -169.387 169.387h-43.9473v42.666h43.9473c4.05273 37.7607 19.4131 72.1074 42.2393 100.054zM347.094 73.8135l-209.28 209.28
c-19.4131 -25.1738 -31.1465 -56.7471 -31.1465 -91.0938c0 -82.5596 66.7734 -149.333 149.333 -149.333c34.3467 0 65.9199 11.7334 91.0938 31.1465z" />
    <glyph glyph-name="uniF172" unicode="&#xf172;" 
d="M0 448h512v-472.615h-512v472.615zM477.342 290.462h-83.4961v-103.976l-137.648 -171.521l-0.197266 -0.196289l-0.197266 0.393555l-247.532 308.382c9.45215 7.08887 104.764 85.0703 247.729 85.0703s238.277 -77.9814 247.926 -85.0703zM144.542 153.6
c4.33203 3.34766 47.0645 38.4004 111.458 38.4004s107.126 -35.0527 111.458 -38.2031l-111.458 -138.831v-0.196289v0.196289zM433.23 14.7695v39.3848h39.3848v-39.3848h-39.3848zM433.23 251.077h39.3848v-157.539h-39.3848v157.539z" />
    <glyph glyph-name="uniF138" unicode="&#xf138;" 
d="M0 448h512v-512h-512v512zM446.72 213.333h43.9473v-42.666h-43.9473c-9.81348 -88.96 -80.4268 -159.573 -169.387 -169.387v-43.9473h-42.666v43.9473c-88.96 9.81348 -159.573 80.4268 -169.387 169.387h-43.9473v42.666h43.9473
c9.81348 88.96 80.4268 159.573 169.387 169.387v43.9473h42.666v-43.9473c88.96 -9.81348 159.573 -80.4268 169.387 -169.387zM256 42.667c82.5596 0 149.333 66.7734 149.333 149.333s-66.7734 149.333 -149.333 149.333s-149.333 -66.7734 -149.333 -149.333
s66.7734 -149.333 149.333 -149.333z" />
    <glyph glyph-name="uniF134" unicode="&#xf134;" 
d="M0 448h512v-512h-512v512zM256 277.333c47.1465 0 85.333 -38.1865 85.333 -85.333s-38.1865 -85.333 -85.333 -85.333s-85.333 38.1865 -85.333 85.333s38.1865 85.333 85.333 85.333zM446.72 213.333h43.9473v-42.666h-43.9473
c-9.81348 -88.96 -80.4268 -159.573 -169.387 -169.387v-43.9473h-42.666v43.9473c-88.96 9.81348 -159.573 80.4268 -169.387 169.387h-43.9473v42.666h43.9473c9.81348 88.96 80.4268 159.573 169.387 169.387v43.9473h42.666v-43.9473
c88.96 -9.81348 159.573 -80.4268 169.387 -169.387zM256 42.667c82.5596 0 149.333 66.7734 149.333 149.333s-66.7734 149.333 -149.333 149.333s-149.333 -66.7734 -149.333 -149.333s66.7734 -149.333 149.333 -149.333z" />
    <glyph glyph-name="uniF14A" unicode="&#xf14a;" 
d="M42.667 -21.333l426.666 426.666v-426.666h-426.666zM0 448h512v-512h-512v512z" />
    <glyph glyph-name="uniF13B" unicode="&#xf13b;" 
d="M42.667 -21.333l426.666 426.666v-426.666h-426.666zM362.667 298.667v-320h-320zM0 448h512v-512h-512v512z" />
    <glyph glyph-name="uniF144" unicode="&#xf144;" 
d="M0 448h512v-512h-512v512zM213.333 106.667c-11.7334 0 -21.333 9.59961 -21.333 21.333v64c0 11.7334 9.59961 21.333 21.333 21.333v21.334c0 23.4668 18.9873 42.666 42.667 42.666c23.4668 0 42.667 -18.9863 42.667 -42.666v-21.334
c11.7334 0 21.333 -9.59961 21.333 -21.333v-64c0 -11.7334 -9.59961 -21.333 -21.333 -21.333h-85.334zM230.4 234.667v-21.334h51.1992v21.334c0 14.0801 -11.5195 25.5996 -25.5996 25.5996s-25.5996 -11.5195 -25.5996 -25.5996zM362.667 426.667
c23.4668 0 42.666 -19.2002 42.666 -42.667v-384c0 -23.4668 -19.1992 -42.667 -42.666 -42.667h-213.334c-23.4668 0 -42.666 19.2002 -42.666 42.667v384c0 23.4668 19.1992 42.667 42.666 42.667h213.334zM362.667 42.667v298.666h-213.334v-298.666h213.334z" />
    <glyph glyph-name="uniF115" unicode="&#xf115;" 
d="M234.667 21.333l34.1328 64h93.8672v-78.293c0 -15.5732 -12.8008 -28.373 -28.5869 -28.373h-156.373c-15.5732 0 -28.374 12.7998 -28.374 28.373v78.293h85.334v-64zM334.293 362.667c15.5732 0 28.374 -12.8008 28.374 -28.374v-248.96h-93.8672l51.2002 96h-42.667
v117.334l-85.333 -160h42.667v-53.334h-85.334v248.96c0 15.5732 12.8008 28.374 28.374 28.374h35.626v42.666h85.334v-42.666h35.626zM0 448h512v-512h-512v512z" />
    <glyph glyph-name="uniF15A" unicode="&#xf15a;" 
d="M0 448h512v-512h-512v512zM469.333 277.333h-85.333v-298.666h-341.333l426.666 426.666v-128zM362.667 -21.333h-320l320 320v-320zM426.667 234.667h42.666v-170.667h-42.666v170.667zM426.667 -21.333v42.666h42.666v-42.666h-42.666z" />
    <glyph glyph-name="uniF16B" unicode="&#xf16b;" 
d="M256.213 -10.4531l-0.212891 -0.213867l-0.212891 0.213867l-248.107 309.12c9.60059 7.25293 104.96 85.333 248.32 85.333c143.146 0 238.72 -78.0801 248.32 -85.333zM0 448h512v-512h-512v512z" />
    <glyph glyph-name="uniF15C" unicode="&#xf15c;" 
d="M0 448h512v-512h-512v512zM426.667 64v170.667h42.666v-170.667h-42.666zM426.667 -21.333v42.666h42.666v-42.666h-42.666zM42.667 -21.333l426.666 426.666v-128h-85.333v-298.666h-341.333z" />
    <glyph glyph-name="uniF17A" unicode="&#xf17a;" 
d="M0 448h512v-512h-512v512zM312.889 263.111h56.8887v-56.8887h-14.2217v-42.667c0 -15.6445 -12.7998 -28.4443 -28.4443 -28.4443h-56.8887v-59.4492c16.4971 -5.97363 28.4443 -21.6172 28.4443 -40.1064c0 -23.6094 -19.0576 -42.667 -42.667 -42.667
s-42.667 19.0576 -42.667 42.667c0 18.4893 11.9473 34.1328 28.4443 40.1064v59.4492h-56.8887c-15.6445 0 -28.4443 12.7998 -28.4443 28.4443v43.8047c-9.95508 5.12012 -17.0664 15.3594 -17.0664 27.3066c0 17.3506 13.9375 31.2881 31.2891 31.2881
c17.3506 0 31.2881 -13.9375 31.2881 -31.2881c0 -11.9473 -7.11035 -22.1865 -17.0664 -27.3066v-43.8047h56.8887v142.222h-42.666l56.8887 85.334l56.8887 -85.334h-42.666v-142.222h56.8887v42.667h-14.2227v56.8887z" />
    <glyph glyph-name="uniF143" unicode="&#xf143;" 
d="M0 448h512v-512h-512v512zM448 341.333c23.4668 0 42.667 -19.1992 42.667 -42.666v-213.334c0 -23.4668 -19.2002 -42.666 -42.667 -42.666h-384c-23.4668 0 -42.667 19.1992 -42.667 42.666v213.334c0 23.4668 19.2002 42.666 42.667 42.666h384zM405.333 85.333
v213.334h-298.666v-213.334h298.666zM213.333 106.667c-11.7334 0 -21.333 9.59961 -21.333 21.333v64c0 11.7334 9.59961 21.333 21.333 21.333v21.334c0 23.4668 18.9873 42.666 42.667 42.666c23.4668 0 42.667 -18.9863 42.667 -42.666v-21.334
c11.7334 0 21.333 -9.59961 21.333 -21.333v-64c0 -11.7334 -9.59961 -21.333 -21.333 -21.333h-85.334zM230.4 234.667v-21.334h51.1992v21.334c0 14.0801 -11.5195 25.5996 -25.5996 25.5996s-25.5996 -11.5195 -25.5996 -25.5996z" />
    <glyph glyph-name="uniF148" unicode="&#xf148;" 
d="M0 448h512v-512h-512v512zM192 106.667c-35.4131 0 -64 28.5859 -64 64c0 33.0664 24.96 60.1602 57.1729 63.5732h3.41406c11.9463 25.3867 37.5469 43.0928 67.4131 43.0928c37.5469 0 68.4805 -27.9463 73.5996 -64h1.06738c29.4395 0 53.333 -23.8926 53.333 -53.333
s-23.8936 -53.333 -53.333 -53.333h-138.667zM448 384c23.4668 0 42.667 -19.2002 42.667 -42.667v-298.666c0 -23.4668 -19.2002 -42.667 -42.667 -42.667h-384c-23.4668 0 -42.667 19.2002 -42.667 42.667v298.666c0 23.4668 19.2002 42.667 42.667 42.667h384z
M448 42.4531v299.094h-384v-299.094h384z" />
    <glyph glyph-name="uniF162" unicode="&#xf162;" 
d="M256.284 -6.82715h-0.568359l-250.312 311.752c9.6709 7.39551 106.098 86.1865 250.596 86.1865s240.925 -78.791 250.596 -86.1865zM0 448h512v-512h-512v512z" />
    <glyph glyph-name="uniF168" unicode="&#xf168;" 
d="M256.284 -6.82715h-0.568359l-250.312 311.752c9.6709 7.39551 106.098 86.1865 250.596 86.1865s240.925 -78.791 250.596 -86.1865zM0 448h512v-512h-512v512zM77.6533 215.04c8.81738 7.11133 77.084 62.293 178.347 62.293s169.529 -55.1816 178.631 -62.293
l-178.347 -221.867l-0.28418 -0.28418v0.28418z" />
    <glyph glyph-name="uniF158" unicode="&#xf158;" 
d="M0 448h512v-512h-512v512zM469.333 277.333h-85.333v-298.666h-341.333l426.666 426.666v-128zM298.667 -21.333h-256l256 256v-256zM426.667 234.667h42.666v-170.667h-42.666v170.667zM426.667 -21.333v42.666h42.666v-42.666h-42.666z" />
    <glyph glyph-name="uniF151" unicode="&#xf151;" 
d="M28.4443 -7.11133l426.667 426.667v-426.667h-426.667zM0 448h512v-512h-512v512z" />
    <glyph glyph-name="uniF176" unicode="&#xf176;" 
d="M433.23 14.7695v39.3848h39.3848v-39.3848h-39.3848zM256 408.615c142.966 0 238.277 -77.9814 247.926 -85.0703l-26.584 -33.083h-83.4961v-103.976l-137.648 -171.521l-0.197266 -0.196289l-0.197266 0.393555l-247.532 308.382
c9.45215 7.08887 104.764 85.0703 247.729 85.0703zM433.23 93.5381v157.539h39.3848v-157.539h-39.3848zM0 448h512v-472.615h-512v472.615z" />
    <glyph glyph-name="uniF150" unicode="&#xf150;" 
d="M42.667 -21.333l426.666 426.666v-426.666h-426.666zM362.667 298.667v-320h-320zM0 448h512v-512h-512v512z" />
    <glyph glyph-name="uniF16D" unicode="&#xf16d;" 
d="M0 448h512v-512h-512v512zM504.32 298.667l-116.48 -145.067l-220.373 220.16c26.8799 6.18652 56.5332 10.2402 88.5332 10.2402c143.146 0 238.72 -78.0801 248.32 -85.333zM363.52 123.307l73.8135 -73.8135l-27.0928 -27.0928l-70.8271 70.8262l-83.2002 -103.68
l-0.212891 -0.213867l-0.212891 0.213867l-248.107 309.12c4.90723 3.83984 33.0674 26.4531 78.7207 47.3594l-43.7334 43.9473l27.0928 27.3066z" />
    <glyph glyph-name="uniF127" unicode="&#xf127;" 
d="M0 448h512v-512h-512v512zM334.293 362.667c15.5732 0 28.374 -12.8008 28.374 -28.374v-327.253c0 -15.5732 -12.8008 -28.373 -28.5869 -28.373h-156.373c-15.5732 0 -28.374 12.7998 -28.374 28.5859v327.04c0 15.5732 12.8008 28.374 28.374 28.374h35.626v42.666
h85.334v-42.666h35.626zM276.267 65.0664v40.5332h-40.5332v-40.5332h40.5332zM305.066 177.28c9.17383 9.17285 14.9336 21.9727 14.9336 36.0527c0 35.4141 -28.5869 64 -64 64s-64 -28.5859 -64 -64h32c0 17.707 14.293 32 32 32s32 -14.293 32 -32
c0 -8.74609 -3.62695 -16.8525 -9.38672 -22.6133l-19.8398 -20.0527c-10.0264 -10.2402 -19.8398 -24.96 -19.8398 -42.667h34.1328c0 9.59961 7.4668 23.8936 17.707 34.1338c6.18652 6.18652 14.293 15.1465 14.293 15.1465z" />
    <glyph glyph-name="uniF17D" unicode="&#xf17d;" 
d="M0 448h512v-512h-512v512zM256 213.333c23.4668 0 42.667 -19.1992 42.667 -42.666s-19.2002 -42.667 -42.667 -42.667s-42.667 19.2002 -42.667 42.667s19.2002 42.666 42.667 42.666zM384 170.667c0 -47.3604 -25.8135 -88.5332 -64 -110.721l-21.333 37.1201
c25.3867 14.9336 42.666 42.0273 42.666 73.6006c0 47.1465 -38.1865 85.333 -85.333 85.333s-85.333 -38.1865 -85.333 -85.333c0 -31.5732 17.2793 -58.667 42.666 -73.6006l-21.333 -37.1201c-38.1865 22.1875 -64 63.3604 -64 110.721c0 70.6133 57.3867 128 128 128
s128 -57.3867 128 -128zM256 384c117.76 0 213.333 -95.5732 213.333 -213.333c0 -78.9336 -42.8799 -147.627 -106.666 -184.533l-21.334 36.9062c50.9873 29.6533 85.334 84.4795 85.334 147.627c0 94.293 -76.374 170.666 -170.667 170.666
s-170.667 -76.373 -170.667 -170.666c0 -63.1475 34.3467 -117.974 85.1201 -147.627l-21.333 -36.9062c-63.5732 36.9062 -106.453 105.6 -106.453 184.533c0 117.76 95.5732 213.333 213.333 213.333z" />
    <glyph glyph-name="uniF10E" unicode="&#xf10e;" 
d="M0 448h512v-512h-512v512zM369.777 334.223v-71.1113h-227.555v71.1113c0 15.6436 12.7998 28.4443 28.4443 28.4443h42.666v42.666h85.334v-42.666h42.666c15.6445 0 28.4443 -12.8008 28.4443 -28.4443zM142.223 263.111h227.555v-241.778
c0 -15.6445 -12.7998 -28.4443 -28.4443 -28.4443h-170.666c-15.6445 0 -28.4443 12.7998 -28.4443 28.4443v241.778z" />
    <glyph glyph-name="uniF15E" unicode="&#xf15e;" 
d="M398.223 282.169l-232.392 -232.392h232.392v232.392zM455.111 419.556v-426.667h-426.667zM0 448h512v-512h-512v512z" />
    <glyph glyph-name="uniF16E" unicode="&#xf16e;" 
d="M256 14.9658l-111.458 138.634c4.33203 3.34766 47.0645 38.4004 111.458 38.4004s107.126 -35.0527 111.458 -38.2031zM256.197 14.9658l-0.197266 -0.196289l-0.197266 0.393555l-247.532 308.382c9.45215 7.08887 104.764 85.0703 247.729 85.0703
s238.277 -77.9814 247.729 -85.0703zM0 448h512v-472.615h-512v472.615z" />
    <glyph glyph-name="uniF145" unicode="&#xf145;" 
d="M496 175.573c12.5869 -12.373 12.5869 -32.6396 0 -45.2266l-135.68 -135.68c-12.374 -12.5869 -32.6406 -12.5869 -45.2266 0l-256.427 256.427c-12.5869 12.373 -12.5869 32.6396 0 45.2266l135.68 135.68c12.373 12.5869 32.6396 12.5869 45.2266 0l52.2666 -52.2666
l-30.0801 -30.0801l-44.7998 44.7998l-120.747 -120.746l241.494 -241.494l120.746 120.747l-47.3594 47.3604l30.0791 30.0801zM180.693 11.0938l28.373 28.373l81.2803 -81.4932l-14.0801 -0.640625c-134.187 0 -244.054 103.254 -254.934 234.667h32
c7.68066 -80.2129 57.6006 -148.054 127.36 -180.906zM341.333 256c-11.7334 0 -21.333 9.59961 -21.333 21.333v85.334c0 11.7334 9.59961 21.333 21.333 21.333v10.667c0 29.4395 23.8936 53.333 53.334 53.333c29.4395 0 53.333 -23.8936 53.333 -53.333v-10.667
c11.7334 0 21.333 -9.59961 21.333 -21.333v-85.334c0 -11.7334 -9.59961 -21.333 -21.333 -21.333h-106.667zM358.4 394.667v-10.667h72.5332v10.667c0 20.0527 -16.2139 36.2666 -36.2666 36.2666c-20.0537 0 -36.2666 -16.2139 -36.2666 -36.2666zM0 448h512v-512h-512
v512z" />
    <glyph glyph-name="uniF103" unicode="&#xf103;" 
d="M0 448h512v-512h-512v512zM168.106 375.68l-97.9199 -82.1328l-27.5195 32.6396l98.1328 82.1338zM469.333 325.974l-27.5195 -32.6406l-98.1338 82.3467l27.5205 32.6406zM256 362.667c106.026 0 192 -85.9736 192 -192c0 -106.027 -85.9736 -192 -192 -192
c-106.24 0 -192 85.9727 -192 192c0 106.026 85.9736 192 192 192zM256 21.333c82.5596 0 149.333 66.7734 149.333 149.334c0 82.5596 -66.7734 149.333 -149.333 149.333s-149.333 -66.7734 -149.333 -149.333c0 -82.5605 66.7734 -149.334 149.333 -149.334zM277.333 256
v-64h64v-42.667h-64v-64h-42.666v64h-64v42.667h64v64h42.666z" />
    <glyph glyph-name="uniF174" unicode="&#xf174;" 
d="M0 448h512v-472.615h-512v472.615zM477.342 290.462h-83.4961v-103.976l-137.648 -171.521l-0.197266 -0.196289l-0.197266 0.393555l-247.532 308.382c9.45215 7.08887 104.764 85.0703 247.729 85.0703s238.277 -77.9814 247.926 -85.0703zM107.323 200.074
c5.71094 4.13477 62.8184 51.0029 148.677 51.0029c67.1504 0 116.775 -28.751 137.846 -43.126v-21.4648l-137.648 -171.521l-0.197266 -0.196289l-0.197266 0.196289zM433.23 251.077h39.3848v-157.539h-39.3848v157.539zM433.23 14.7695v39.3848h39.3848v-39.3848
h-39.3848z" />
    <glyph glyph-name="uniF12D" unicode="&#xf12d;" 
d="M0 448h512v-512h-512v512zM426.667 262.613l70.6133 -70.6133l-70.6133 -70.6133v-100.054h-100.054l-70.6133 -70.6133l-70.6133 70.6133h-100.054v100.054l-70.6133 70.6133l70.6133 70.6133v100.054h100.054l70.6133 70.6133l70.6133 -70.6133h100.054v-100.054z
M256 64c70.6133 0 128 57.3867 128 128s-57.3867 128 -128 128s-128 -57.3867 -128 -128s57.3867 -128 128 -128zM256 277.333c47.1465 0 85.333 -38.1865 85.333 -85.333s-38.1865 -85.333 -85.333 -85.333s-85.333 38.1865 -85.333 85.333s38.1865 85.333 85.333 85.333z
" />
    <glyph glyph-name="uniF173" unicode="&#xf173;" 
d="M477.342 290.462h-83.4961v-103.976l-137.648 -171.521l-0.197266 -0.196289l-0.197266 0.393555l-247.532 308.382c9.45215 7.08887 104.764 85.0703 247.729 85.0703s238.277 -77.9814 247.926 -85.0703zM433.23 14.7695v39.3848h39.3848v-39.3848h-39.3848z
M433.23 251.077h39.3848v-157.539h-39.3848v157.539zM0 448h512v-472.615h-512v472.615z" />
    <glyph glyph-name="uniF123" unicode="&#xf123;" 
d="M0 448h512v-512h-512v512zM334.293 362.667c15.5732 0 28.374 -12.8008 28.374 -28.374v-327.253c0 -15.5732 -12.8008 -28.373 -28.5869 -28.373h-156.373c-15.5732 0 -28.374 12.7998 -28.374 28.5859v327.04c0 15.5732 12.8008 28.374 28.374 28.374h35.626v42.666
h85.334v-42.666h35.626z" />
    <glyph glyph-name="uniF112" unicode="&#xf112;" 
d="M0 448h512v-512h-512v512zM341.333 362.667c15.6445 0 28.4443 -12.8008 28.4443 -28.4443v-312.89c0 -15.6445 -12.7998 -28.4443 -28.4443 -28.4443h-170.666c-15.6445 0 -28.4443 12.7998 -28.4443 28.4443v312.89c0 15.6436 12.7998 28.4443 28.4443 28.4443h42.666
v42.666h85.334v-42.666h42.666zM284.444 78.2227v56.8887h-56.8887v-56.8887h56.8887zM284.444 163.556v113.777h-56.8887v-113.777h56.8887z" />
    <glyph glyph-name="uniF166" unicode="&#xf166;" 
d="M256.284 -6.82715h-0.568359l-250.312 311.752c9.6709 7.39551 106.098 86.1865 250.596 86.1865s240.925 -78.791 250.596 -86.1865zM0 448h512v-512h-512v512zM113.209 170.667c7.39551 5.4043 61.7246 49.7773 142.791 49.7773s135.396 -44.373 142.507 -49.7773
l-142.507 -177.494v-0.28418l-0.28418 0.28418z" />
    <glyph glyph-name="uniF169" unicode="&#xf169;" 
d="M256.213 -10.4531l-0.212891 -0.213867l-0.212891 0.213867l-248.107 309.12c9.60059 7.25293 104.96 85.333 248.32 85.333c143.146 0 238.72 -78.0801 248.32 -85.333zM0 448h512v-512h-512v512zM75.3066 214.4c9.17383 7.04004 78.0801 62.9326 180.693 62.9326
s171.52 -55.8926 180.693 -62.9326l-180.48 -224.854l-0.212891 -0.213867l-0.212891 0.213867z" />
    <glyph glyph-name="uniF154" unicode="&#xf154;" 
d="M0 448h512v-512h-512v512zM469.333 277.333h-85.333v-298.666h-341.333l426.666 426.666v-128zM426.667 -21.333v42.666h42.666v-42.666h-42.666zM426.667 234.667h42.666v-170.667h-42.666v170.667z" />
    <glyph glyph-name="uniF167" unicode="&#xf167;" 
d="M256.213 -10.4531l-0.212891 -0.213867l-0.212891 0.213867l-248.107 309.12c9.60059 7.25293 104.96 85.333 248.32 85.333c143.146 0 238.72 -78.0801 248.32 -85.333zM0 448h512v-512h-512v512zM102.187 180.906c7.67969 5.97363 66.3467 53.7607 153.813 53.7607
s146.134 -47.7871 153.813 -53.5469l-153.601 -191.573l-0.212891 -0.213867h-0.212891z" />
    <glyph glyph-name="uniF116" unicode="&#xf116;" 
d="M0 448h512v-512h-512v512zM341.333 362.667c15.6445 0 28.4443 -12.8008 28.4443 -28.4443v-184.89h-71.1104l28.4443 56.8896h-56.8887v113.777l-85.334 -170.667h-42.666v184.89c0 15.6436 12.7998 28.4443 28.4443 28.4443h42.666v42.666h85.334v-42.666h42.666z
M241.777 35.5557l56.8896 113.777h71.1104v-128c0 -15.6445 -12.7998 -28.4443 -28.4443 -28.4443h-170.666c-15.6445 0 -28.4443 12.7998 -28.4443 28.4443v128h99.5547v-113.777z" />
    <glyph glyph-name="uniF12E" unicode="&#xf12e;" 
d="M0 448h512v-512h-512v512zM426.667 121.387v-100.054h-100.054l-70.6133 -70.6133l-70.6133 70.6133h-100.054v100.054l-70.6133 70.6133l70.6133 70.6133v100.054h100.054l70.6133 70.6133l70.6133 -70.6133h100.054v-100.054l70.6133 -70.6133zM256 64
c70.6133 0 128 57.3867 128 128s-57.3867 128 -128 128s-128 -57.3867 -128 -128s57.3867 -128 128 -128z" />
    <glyph glyph-name="uniF100" unicode="&#xf100;" 
d="M0 448h512v-512h-512v512zM469.333 325.974l-27.5195 -32.6406l-98.1338 82.3467l27.5205 32.6406zM168.106 375.68l-97.9199 -82.1328l-27.5195 32.6396l98.1328 82.1338zM266.667 277.333v-112l85.333 -50.5596l-16 -26.2402l-101.333 60.7998v128h32zM256 362.667
c106.026 0 192 -85.9736 192 -192c0 -106.027 -85.9736 -192 -192 -192c-106.24 0 -192 85.9727 -192 192c0 106.026 85.9736 192 192 192zM256 21.333c82.5596 0 149.333 66.7734 149.333 149.334c0 82.5596 -66.7734 149.333 -149.333 149.333
s-149.333 -66.7734 -149.333 -149.333c0 -82.5605 66.7734 -149.334 149.333 -149.334z" />
    <glyph glyph-name="uniF15B" unicode="&#xf15b;" 
d="M0 448h512v-512h-512v512zM341.333 305.777l113.778 113.778v-113.778h-113.778zM398.223 -7.11133v56.8887h56.8887v-56.8887h-56.8887zM398.223 248.889h56.8887v-142.222h-56.8887v142.222zM341.333 -7.11133h-312.889l312.889 312.889v-312.889z" />
    <glyph glyph-name="uniF15F" unicode="&#xf15f;" 
d="M426.667 302.293l-280.96 -280.96h280.96v280.96zM469.333 405.333v-426.666h-426.666zM0 448h512v-512h-512v512z" />
    <glyph glyph-name="uniF131" unicode="&#xf131;" 
d="M0 448h512v-512h-512v512zM149.333 341.333v-42.666h-42.666v85.333c0 23.4668 19.1992 42.667 42.666 42.667l213.334 -0.213867c23.4668 0 42.666 -18.9863 42.666 -42.4531v-85.333h-42.666v42.666h-213.334zM328.747 94.0801l-30.0801 30.293l67.626 67.627
l-67.626 67.627l30.0801 30.293l97.9199 -97.9199zM213.333 124.373l-30.0801 -30.293l-97.9199 97.9199l97.9199 97.9199l30.0801 -30.293l-67.626 -67.627zM362.667 42.667v42.666h42.666v-85.333c0 -23.4668 -19.1992 -42.667 -42.666 -42.667h-213.334
c-23.4668 0 -42.666 19.2002 -42.666 42.667v85.333h42.666v-42.666h213.334z" />
    <glyph glyph-name="uniF13C" unicode="&#xf13c;" 
d="M256.284 -6.82715h-0.568359l-250.312 311.752c9.6709 7.39551 106.098 86.1865 250.596 86.1865s240.925 -78.791 250.596 -86.1865zM0 448h512v-512h-512v512zM77.6533 215.04c8.81738 7.11133 77.084 62.293 178.347 62.293s169.529 -55.1816 178.631 -62.293
l-178.347 -221.867l-0.28418 -0.28418v0.28418z" />
    <glyph glyph-name="uniF140" unicode="&#xf140;" 
d="M85.333 362.667v-149.334h-42.666v149.334c0 23.4668 19.1992 42.666 42.666 42.666h149.334v-42.666h-149.334zM213.333 170.667l63.3604 -79.1475l43.3066 57.8135l64 -85.333h-256zM362.667 266.667c0 -17.707 -14.2939 -32 -32 -32c-17.707 0 -32 14.293 -32 32
c0 17.7061 14.293 32 32 32c17.7061 0 32 -14.2939 32 -32zM426.667 405.333c23.4668 0 42.666 -19.1992 42.666 -42.666v-149.334h-42.666v149.334h-149.334v42.666h149.334zM426.667 21.333v149.334h42.666v-149.334c0 -23.4668 -19.1992 -42.666 -42.666 -42.666
h-149.334v42.666h149.334zM85.333 170.667v-149.334h149.334v-42.666h-149.334c-23.4668 0 -42.666 19.1992 -42.666 42.666v149.334h42.666zM0 448h512v-512h-512v512z" />
    <glyph glyph-name="uniF153" unicode="&#xf153;" 
d="M0 448h512v-512h-512v512zM341.333 305.777l113.778 113.778v-113.778h-113.778zM341.333 -7.11133h-312.889l312.889 312.889v-312.889zM398.223 -7.11133v56.8887h56.8887v-56.8887h-56.8887zM398.223 248.889h56.8887v-142.222h-56.8887v142.222z" />
    <glyph glyph-name="uniF15D" unicode="&#xf15d;" 
d="M-13184 61717.3h29866.7v-76800h-29866.7v76800zM-21.333 448v-512h554.666v512h-554.666zM0 448h512v-512h-512v512zM405.12 341.333l0.212891 -249.173l-241.92 241.92l49.9199 49.9199h149.334c23.4668 0 42.4531 -19.2002 42.4531 -42.667zM77.8662 365.227
l372.693 -372.693l-27.0928 -27.0928l-40.1064 40.1064c-6.1875 -3.41309 -13.0137 -5.54688 -20.4805 -5.54688h-213.547c-23.4668 0 -42.666 19.2002 -42.666 42.667v239.573l-55.8936 55.8936zM0.212891 448h512v-512h-512v512z" />
    <glyph glyph-name="uniF11E" unicode="&#xf11e;" 
d="M0 448h512v-512h-512v512zM341.333 362.667c15.6445 0 28.4443 -12.8008 28.4443 -28.4443v-42.667h-99.5547v28.4443l-14.2227 -28.4443h-113.777v42.667c0 15.6436 12.7998 28.4443 28.4443 28.4443h28.4443v42.666h113.777v-42.666h28.4443zM270.223 206.223v85.333
h99.5547v-270.223c0 -15.6445 -12.7998 -28.4443 -28.4443 -28.4443h-170.666c-15.6445 0 -28.4443 12.7998 -28.4443 28.4443v270.223h113.777l-71.1113 -142.223h56.8887v-113.777l85.334 170.667h-56.8887z" />
    <glyph glyph-name="uniF164" unicode="&#xf164;" 
d="M256.284 -6.82715h-0.568359l-250.312 311.752c9.6709 7.39551 106.098 86.1865 250.596 86.1865s240.925 -78.791 250.596 -86.1865zM0 448h512v-512h-512v512zM149.049 126.293c5.4043 3.98242 46.0801 37.2627 106.951 37.2627s101.547 -33.2803 106.951 -37.5469
l-106.951 -133.12z" />
    <glyph glyph-name="uniF11C" unicode="&#xf11c;" 
d="M0 448h512v-512h-512v512zM341.333 362.667c15.6445 0 28.4443 -12.8008 28.4443 -28.4443v-71.1113h-99.5547v56.8887l-28.4453 -56.8887h-99.5547v71.1113c0 15.6436 12.7998 28.4443 28.4443 28.4443h42.666v42.666h85.334v-42.666h42.666zM270.223 206.223v56.8887
h99.5547v-241.778c0 -15.6445 -12.7998 -28.4443 -28.4443 -28.4443h-170.666c-15.6445 0 -28.4443 12.7998 -28.4443 28.4443v241.778h99.5547l-56.8887 -113.778h56.8887v-113.777l85.334 170.667h-56.8887z" />
    <glyph glyph-name="uniF14D" unicode="&#xf14d;" 
d="M28.4443 -7.11133l426.667 426.667v-426.667h-426.667zM28.4443 -7.11133l256 256v-256h-256zM0 448h512v-512h-512v512z" />
    <glyph glyph-name="uniF118" unicode="&#xf118;" 
d="M0 448h512v-512h-512v512zM341.333 362.667c15.6445 0 28.4443 -12.8008 28.4443 -28.4443v-156.445h-56.8887l14.2227 28.4453h-56.8887v113.777l-71.1113 -142.223h-56.8887v156.445c0 15.6436 12.7998 28.4443 28.4443 28.4443h42.666v42.666h85.334v-42.666h42.666z
M241.777 35.5557l71.1113 142.222h56.8887v-156.444c0 -15.6445 -12.7998 -28.4443 -28.4443 -28.4443h-170.666c-15.6445 0 -28.4443 12.7998 -28.4443 28.4443v156.444h56.8887l-14.2227 -28.4443h56.8887v-113.777z" />
    <glyph glyph-name="uniF106" unicode="&#xf106;" 
d="M0 448h512v-512h-512v512zM369.777 334.223v-241.778h-227.555v241.778c0 15.6436 12.7998 28.4443 28.4443 28.4443h42.666v42.666h85.334v-42.666h42.666c15.6445 0 28.4443 -12.8008 28.4443 -28.4443zM142.223 92.4443h227.555v-71.1113
c0 -15.6445 -12.7998 -28.4443 -28.4443 -28.4443h-170.666c-15.6445 0 -28.4443 12.7998 -28.4443 28.4443v71.1113z" />
    <glyph glyph-name="uniF119" unicode="&#xf119;" 
d="M0 448h512v-512h-512v512zM192 138.667h42.667v-117.334l74.0264 138.667h-105.387zM277.333 181.333v117.334l-62.5059 -117.334l-11.5205 -21.333h105.387l11.3066 21.333h-42.667zM308.693 160h53.9736v-152.96c0 -15.5732 -12.8008 -28.373 -28.5869 -28.373
h-156.373c-15.5732 0 -28.374 12.7998 -28.374 28.373v152.96h53.9736l-11.3066 -21.333h42.667v-117.334zM334.293 362.667c15.5732 0 28.374 -12.8008 28.374 -28.374v-174.293h-53.9736l11.3066 21.333h-42.667v117.334l-74.0264 -138.667h-53.9736v174.293
c0 15.5732 12.8008 28.374 28.374 28.374h35.626v42.666h85.334v-42.666h35.626z" />
    <glyph glyph-name="uniF165" unicode="&#xf165;" 
d="M256.213 -10.4531l-0.212891 -0.213867l-0.212891 0.213867l-248.107 309.12c9.60059 7.25293 104.96 85.333 248.32 85.333c143.146 0 238.72 -78.0801 248.32 -85.333zM0 448h512v-512h-512v512zM142.293 130.986c5.76074 4.48047 49.0674 39.6807 113.707 39.6807
s107.946 -35.2002 113.92 -39.6807l-113.707 -141.439l-0.212891 -0.213867v0.213867z" />
    <glyph glyph-name="uniF177" unicode="&#xf177;" 
d="M0 448h512v-472.615h-512v472.615zM413.538 280.615c-54.3506 0 -98.4609 -44.1104 -98.4609 -98.4609c0 -24.6162 9.05859 -46.8682 24.0244 -64l-82.9043 -103.188l-0.197266 -0.196289l-0.197266 0.393555l-247.532 308.382
c9.45215 7.08887 104.764 85.0703 247.729 85.0703s238.277 -77.9814 247.729 -85.2676l-44.1113 -54.9414c-13.7842 7.67969 -29.3408 12.209 -46.0801 12.209zM413.538 251.077c38.0068 0 68.9238 -30.917 69.1201 -69.1201
c0 -15.1631 -6.30176 -28.9482 -16.1475 -38.7939l-15.3604 -15.7539c-12.6025 -12.4062 -20.2822 -22.8428 -20.2822 -48.6396h-34.4619v8.66406c0 18.9053 7.67969 36.2344 20.0859 48.6406l21.4648 21.6611c6.10449 6.30176 10.043 14.9658 10.043 24.4189
c0 19.1016 -15.3604 34.4609 -34.4619 34.4609s-34.4609 -15.3594 -34.4609 -34.4609h-34.4619c0 38.0059 30.917 68.9229 68.9229 68.9229zM394.831 15.7539v37.415h37.415v-37.415h-37.415z" />
    <glyph glyph-name="uniF135" unicode="&#xf135;" 
d="M0 448h512v-512h-512v512zM446.72 213.333h43.9473v-42.666h-43.9473c-9.81348 -88.96 -80.4268 -159.573 -169.387 -169.387v-43.9473h-42.666v43.9473c-88.96 9.81348 -159.573 80.4268 -169.387 169.387h-43.9473v42.666h43.9473
c9.81348 88.96 80.4268 159.573 169.387 169.387v43.9473h42.666v-43.9473c88.96 -9.81348 159.573 -80.4268 169.387 -169.387zM256 42.667c82.5596 0 149.333 66.7734 149.333 149.333s-66.7734 149.333 -149.333 149.333s-149.333 -66.7734 -149.333 -149.333
s66.7734 -149.333 149.333 -149.333z" />
    <glyph glyph-name="uniF113" unicode="&#xf113;" 
d="M0 448h512v-512h-512v512zM334.293 362.667c15.5732 0 28.374 -12.8008 28.374 -28.374v-327.253c0 -15.5732 -12.8008 -28.373 -28.5869 -28.373h-156.373c-15.5732 0 -28.374 12.7998 -28.374 28.5859v327.04c0 15.5732 12.8008 28.374 28.374 28.374h35.626v42.666
h85.334v-42.666h35.626zM277.333 64v42.667h-42.666v-42.667h42.666zM277.333 149.333v106.667h-42.666v-106.667h42.666z" />
    <glyph glyph-name="uniF130" unicode="&#xf130;" 
d="M0 448h512v-512h-512v512zM277.333 404.267c107.733 -10.667 192 -101.76 192 -212.267c0 -30.9336 -6.82617 -60.373 -18.7734 -86.8271l-55.4658 32.6406c6.39941 16.8535 10.2393 34.9863 10.2393 54.1865c0 75.3066 -55.6797 137.173 -128 147.627v64.6396z
M256 42.667c47.1465 0 88.96 21.7598 116.267 55.8926l55.4668 -32.6396c-38.8271 -52.9062 -101.333 -87.2529 -171.946 -87.2529c-117.761 0 -213.12 95.5732 -213.12 213.333c0 110.72 84.0527 201.6 192 212.267v-64.6396
c-72.3203 -10.4541 -128 -72.3203 -128 -147.627c0 -82.5596 66.7734 -149.333 149.333 -149.333z" />
    <glyph glyph-name="uniF11D" unicode="&#xf11d;" 
d="M334.293 362.667c15.5732 0 28.374 -12.8008 28.374 -28.374v-78.293h-85.334v42.667l-22.8262 -42.667h-105.174v78.293c0 15.5732 12.8008 28.374 28.374 28.374h35.626v42.666h85.334v-42.666h35.626zM277.333 181.333v74.667h85.334v-248.96
c0 -15.5732 -12.8008 -28.373 -28.5869 -28.373h-156.373c-15.5732 0 -28.374 12.7998 -28.374 28.373v248.96h105.174l-62.5068 -117.333h42.667v-117.334l85.333 160h-42.667zM0 448h512v-512h-512v512z" />
    <glyph glyph-name="uniF13E" unicode="&#xf13e;" 
d="M85.333 21.333v341.334h341.334v-341.334h-341.334zM426.667 405.333c23.4668 0 42.666 -19.1992 42.666 -42.666v-341.334c0 -23.4668 -19.1992 -42.666 -42.666 -42.666h-341.334c-23.4668 0 -42.666 19.1992 -42.666 42.666v341.334
c0 23.4668 19.1992 42.666 42.666 42.666h341.334zM426.667 21.333v341.334h-341.334v-341.334h341.334zM384 320v-256h-256v256h85.333v-42.667h-42.666v-170.666h170.666v170.666h-64v-48.6396c12.8008 -7.25293 21.334 -20.9062 21.334 -36.6934
c0 -23.4668 -19.2002 -42.667 -42.667 -42.667s-42.667 19.2002 -42.667 42.667c0 15.7871 8.5332 29.2266 21.334 36.6934v48.6396c0 23.4668 19.1992 42.667 42.666 42.667h106.667zM0 448h512v-512h-512v512z" />
    <glyph glyph-name="uniF16F" unicode="&#xf16f;" 
d="M256.197 14.9658l-0.197266 -0.196289l-0.197266 0.393555l-247.532 308.382c9.45215 7.08887 104.764 85.0703 247.729 85.0703s238.277 -77.9814 247.729 -85.0703zM256.197 14.9658h-0.394531l-148.479 185.108c5.71094 4.13477 62.8184 51.0029 148.677 51.0029
s142.966 -46.8682 148.677 -51.0029zM0 448h512v-472.615h-512v472.615z" />
    <glyph glyph-name="uniF14C" unicode="&#xf14c;" 
d="M42.667 -21.333l426.666 426.666v-426.666h-426.666zM256 192v-213.333h-213.333zM0 448h512v-512h-512v512z" />
    <glyph glyph-name="uniF160" unicode="&#xf160;" 
d="M0 448h512v-512h-512v512zM440.889 419.556v-352.143l-176.071 176.071zM101.831 352.143l367.502 -367.787l-27.0215 -27.0225l-42.667 42.667l-7.11133 7.11133h-364.089l182.045 182.044l-135.965 135.681z" />
    <glyph glyph-name="uniF12F" unicode="&#xf12f;" 
d="M0 448h512v-512h-512v512zM426.667 121.387v-100.054h-100.054l-70.6133 -70.6133l-70.6133 70.6133h-100.054v100.054l-70.6133 70.6133l70.6133 70.6133v100.054h100.054l70.6133 70.6133l70.6133 -70.6133h100.054v-100.054l70.6133 -70.6133zM256 64
c70.6133 0 128 57.3867 128 128s-57.3867 128 -128 128v-256z" />
    <glyph glyph-name="uniF10D" unicode="&#xf10d;" 
d="M0 448h512v-512h-512v512zM362.667 334.293v-120.96h-213.334v120.96c0 15.5732 12.8008 28.374 28.374 28.374h35.626v42.666h85.334v-42.666h35.626c15.5732 0 28.374 -12.8008 28.374 -28.374zM149.333 213.333h213.334v-206.293
c0 -15.5732 -12.8008 -28.373 -28.5869 -28.373h-156.373c-15.5732 0 -28.374 12.7998 -28.374 28.373v206.293z" />
    <glyph glyph-name="uniF133" unicode="&#xf133;" 
d="M0 448h512v-512h-512v512zM448 384c23.4668 0 42.667 -19.2002 42.667 -42.667l-0.213867 -256c0 -23.4668 -18.9863 -42.666 -42.4531 -42.666h-106.667v-42.667h-170.666v42.667h-106.667c-23.4668 0 -42.667 19.1992 -42.667 42.666v256
c0 23.4668 19.2002 42.667 42.667 42.667h384zM448 85.333v256h-384v-256h384zM405.333 277.333v-42.666h-234.666v42.666h234.666zM405.333 192v-42.667h-234.666v42.667h234.666zM149.333 277.333v-42.666h-42.666v42.666h42.666zM149.333 192v-42.667h-42.666v42.667
h42.666z" />
    <glyph glyph-name="uniF101" unicode="&#xf101;" 
d="M-13184 12565.3h29866.7v-76800h-29866.7v76800zM0 448v-512h512v512h-512zM469.333 326.4l-27.7334 -32l-98.1328 83.1992l27.7334 32zM168.533 375.467l-98.1328 -81.0664l-27.7334 32l98.1328 81.0664zM266.667 277.333v-113.066l85.333 -51.2002l-17.0664 -25.5996
l-100.267 61.8662v128h32zM256 362.667c106.667 0 192 -85.334 192 -192c0 -106.667 -85.333 -192 -192 -192s-192 85.333 -192 192c0 106.666 85.333 192 192 192zM256 21.333c83.2002 0 149.333 66.1338 149.333 149.334c0 83.1992 -66.1328 149.333 -149.333 149.333
s-149.333 -66.1338 -149.333 -149.333c0 -83.2002 66.1328 -149.334 149.333 -149.334z" />
    <glyph glyph-name="uniF10A" unicode="&#xf10a;" 
d="M0 448h512v-512h-512v512zM369.777 334.223v-156.445h-227.555v156.445c0 15.6436 12.7998 28.4443 28.4443 28.4443h42.666v42.666h85.334v-42.666h42.666c15.6445 0 28.4443 -12.8008 28.4443 -28.4443zM142.223 177.777h227.555v-156.444
c0 -15.6445 -12.7998 -28.4443 -28.4443 -28.4443h-170.666c-15.6445 0 -28.4443 12.7998 -28.4443 28.4443v156.444z" />
    <glyph glyph-name="uniF13D" unicode="&#xf13d;" 
d="M256.213 -10.4531l-0.212891 -0.213867l-0.212891 0.213867l-248.107 309.12c9.60059 7.25293 104.96 85.333 248.32 85.333c143.146 0 238.72 -78.0801 248.32 -85.333zM0 448h512v-512h-512v512zM75.3066 214.4c9.17383 7.04004 78.0801 62.9326 180.693 62.9326
s171.52 -55.8926 180.693 -62.9326l-180.48 -224.854l-0.212891 -0.213867l-0.212891 0.213867z" />
    <glyph glyph-name="uniF13F" unicode="&#xf13f;" 
d="M0 448h512v-512h-512v512zM369.777 277.333c0 -15.6445 -12.7998 -28.4443 -28.4443 -28.4443s-28.4443 12.7998 -28.4443 28.4443s12.7998 28.4443 28.4443 28.4443s28.4443 -12.7998 28.4443 -28.4443zM235.805 80.2129l71.1113 91.5918l91.3066 -122.027h-284.445
l71.1113 91.3066zM85.333 362.667v-142.223h-56.8887v142.223c0 31.2881 25.6006 56.8887 56.8887 56.8887h142.223v-56.8887h-142.223zM426.667 21.333v142.223h56.8887v-142.223c0 -31.2881 -25.6006 -56.8887 -56.8887 -56.8887h-142.223v56.8887h142.223z
M85.333 163.556v-142.223h142.223v-56.8887h-142.223c-31.2881 0 -56.8887 25.6006 -56.8887 56.8887v142.223h56.8887zM426.667 419.556c31.2881 0 56.8887 -25.6006 56.8887 -56.8887v-142.223h-56.8887v142.223h-142.223v56.8887h142.223z" />
    <glyph glyph-name="uniF156" unicode="&#xf156;" 
d="M0 448h512v-512h-512v512zM469.333 277.333h-85.333v-298.666h-341.333l426.666 426.666v-128zM426.667 234.667h42.666v-170.667h-42.666v170.667zM256 -21.333h-213.333l213.333 213.333v-213.333zM426.667 -21.333v42.666h42.666v-42.666h-42.666z" />
    <glyph glyph-name="uniF120" unicode="&#xf120;" 
d="M0 448h512v-512h-512v512zM341.333 362.667c15.6445 0 28.4443 -12.8008 28.4443 -28.4443v-312.89c0 -15.6445 -12.7998 -28.4443 -28.4443 -28.4443h-170.666c-15.6445 0 -28.4443 12.7998 -28.4443 28.4443v312.89c0 15.6436 12.7998 28.4443 28.4443 28.4443h42.666
v42.666h85.334v-42.666h42.666zM241.777 35.5557l85.334 170.667h-56.8887v113.777l-85.334 -170.667h56.8887v-113.777z" />
    <glyph glyph-name="uniF102" unicode="&#xf102;" 
d="M255.787 405.333c117.973 0 213.546 -95.5732 213.546 -213.333s-95.5732 -213.333 -213.546 -213.333c-117.761 0 -213.12 95.5732 -213.12 213.333s95.3594 213.333 213.12 213.333zM256 21.333c94.293 0 170.667 76.374 170.667 170.667
s-76.374 170.667 -170.667 170.667s-170.667 -76.374 -170.667 -170.667s76.374 -170.667 170.667 -170.667zM0 448h512v-512h-512v512zM266.667 298.667v-112l96 -56.96l-16 -26.2402l-112 67.2002v128h32z" />
    <glyph glyph-name="uniF108" unicode="&#xf108;" 
d="M0 448h512v-512h-512v512zM369.777 334.223v-213.334h-227.555v213.334c0 15.6436 12.7998 28.4443 28.4443 28.4443h42.666v42.666h85.334v-42.666h42.666c15.6445 0 28.4443 -12.8008 28.4443 -28.4443zM142.223 120.889h227.555v-99.5557
c0 -15.6445 -12.7998 -28.4443 -28.4443 -28.4443h-170.666c-15.6445 0 -28.4443 12.7998 -28.4443 28.4443v99.5557z" />
    <glyph glyph-name="uniF147" unicode="&#xf147;" 
d="M0 448h512v-512h-512v512zM384 405.333c23.4668 0 42.667 -19.1992 42.667 -42.666v-341.334c0 -23.4668 -19.2002 -42.666 -42.667 -42.666h-256c-23.4668 0 -42.667 19.1992 -42.667 42.666l0.426758 256l127.573 128h170.667zM256 277.333v85.334h-42.667v-85.334
h42.667zM320 277.333v85.334h-42.667v-85.334h42.667zM384 277.333v85.334h-42.667v-85.334h42.667z" />
    <glyph glyph-name="uniF110" unicode="&#xf110;" 
d="M0 448h512v-512h-512v512zM369.777 334.223v-42.667h-227.555v42.667c0 15.6436 12.7998 28.4443 28.4443 28.4443h42.666v42.666h85.334v-42.666h42.666c15.6445 0 28.4443 -12.8008 28.4443 -28.4443zM142.223 291.556h227.555v-270.223
c0 -15.6445 -12.7998 -28.4443 -28.4443 -28.4443h-170.666c-15.6445 0 -28.4443 12.7998 -28.4443 28.4443v270.223z" />
    <glyph glyph-name="uniF170" unicode="&#xf170;" 
d="M256.197 14.9658h-0.394531l-185.698 231.385c7.28613 5.31738 78.7695 63.8037 185.896 63.8037s178.609 -58.4863 185.896 -63.8037zM256.197 14.9658l-0.197266 -0.196289l-0.197266 0.393555l-247.532 308.382c9.45215 7.08887 104.764 85.0703 247.729 85.0703
s238.277 -77.9814 247.729 -85.0703zM0 448h512v-472.615h-512v472.615z" />
    <glyph glyph-name="uniF16C" unicode="&#xf16c;" 
d="M0 448h512v-512h-512v512zM506.596 304.925l-120.32 -149.618l-224.711 224.427c28.4443 6.82617 60.0176 11.3779 94.4355 11.3779c144.498 0 240.925 -78.791 250.596 -86.1865zM42.667 389.974l27.0215 27.3066l367.787 -367.503l-27.0225 -27.3066l-70.8262 70.8271
l-1.70703 1.70703l-81.6357 -101.832l-0.28418 -0.28418l-0.28418 0.28418l-250.312 311.752c4.83594 3.69727 31.8584 25.5996 75.9473 46.3643z" />
    <glyph glyph-name="uniF124" unicode="&#xf124;" 
d="M341.333 362.667c15.6445 0 28.4443 -12.8008 28.4443 -28.4443v-312.89c0 -15.6445 -12.7998 -28.4443 -28.4443 -28.4443h-170.666c-15.6445 0 -28.4443 12.7998 -28.4443 28.4443v312.89c0 15.6436 12.7998 28.4443 28.4443 28.4443h42.666v42.666h85.334v-42.666
h42.666zM0 448h512v-512h-512v512z" />
    <glyph glyph-name="uniF136" unicode="&#xf136;" 
d="M0 448h512v-512h-512v512zM446.72 213.333h43.9473v-42.666h-43.7334c-2.77344 -24.1074 -10.0273 -46.7207 -20.6934 -67.2002l-32 32c7.04004 17.2803 11.0928 36.4795 11.0928 56.5332c0 82.5596 -66.7734 149.333 -149.333 149.333
c-20.0537 0 -39.2529 -4.05273 -56.7471 -11.3066l-32 32c20.6934 10.8799 43.3066 18.1338 67.4141 20.6934v43.9473h42.666v-43.9473c88.96 -9.81348 159.573 -80.4268 169.387 -169.387zM64 356.906l27.0938 27.0938l356.906 -356.906l-27.0938 -27.0938
l-43.5195 43.5195c-27.9463 -22.8262 -62.293 -37.9727 -100.054 -42.2393v-43.9473h-42.666v43.9473c-88.96 9.81348 -159.573 80.4268 -169.387 169.387h-43.9473v42.666h43.9473c4.05273 37.7607 19.4131 72.1074 42.2393 100.054zM347.094 73.8135l-209.28 209.28
c-19.4131 -25.1738 -31.1465 -56.7471 -31.1465 -91.0938c0 -82.5596 66.7734 -149.333 149.333 -149.333c34.3467 0 65.9199 11.7334 91.0938 31.1465z" />
    <glyph glyph-name="uniF16A" unicode="&#xf16a;" 
d="M256.284 -6.82715h-0.568359l-250.312 311.752c9.6709 7.39551 106.098 86.1865 250.596 86.1865s240.925 -78.791 250.596 -86.1865zM0 448h512v-512h-512v512z" />
    <glyph glyph-name="uniF157" unicode="&#xf157;" 
d="M0 448h512v-512h-512v512zM455.111 419.556v-113.778h-113.778zM28.4443 -7.11133l312.889 312.889v-312.889h-312.889zM284.444 -7.11133h-256l256 256v-256zM398.223 248.889h56.8887v-142.222h-56.8887v142.222zM398.223 -7.11133v56.8887h56.8887v-56.8887h-56.8887z
" />
    <glyph glyph-name="uniF126" unicode="&#xf126;" 
d="M0 448h512v-512h-512v512zM341.333 362.667c15.6445 0 28.4443 -12.8008 28.4443 -28.4443v-312.89c0 -15.6445 -12.7998 -28.4443 -28.4443 -28.4443h-170.666c-15.6445 0 -28.4443 12.7998 -28.4443 28.4443v312.89c0 15.6436 12.7998 28.4443 28.4443 28.4443h42.666
v42.666h85.334v-42.666h42.666zM278.756 55.4668v45.5107h-45.5117v-45.5107h45.5117zM310.613 194.56c10.2402 10.2402 16.498 24.4629 16.498 40.1074c0 39.2529 -31.8584 71.1104 -71.1113 71.1104s-71.1113 -31.8574 -71.1113 -71.1104h35.8398
c0 19.626 15.9297 35.5557 35.5557 35.5557c19.627 0 35.5557 -15.9297 35.5557 -35.5557c0 -9.67188 -3.98242 -18.4893 -10.5244 -25.0312l-22.1865 -22.4717c-11.0938 -11.0928 -25.8848 -32.4268 -25.8848 -52.0527h41.8135c0 10.8086 8.24902 31.2891 19.627 42.666
c6.82617 6.82715 15.9287 16.7822 15.9287 16.7822z" />
    <glyph glyph-name="uniF17B" unicode="&#xf17b;" 
d="M0 448h512v-512h-512v512zM320 298.667h85.333v-85.334h-21.333v-42.666c0 -23.6807 -18.9863 -42.667 -42.667 -42.667h-64v-65.0664c15.1475 -7.89355 25.6006 -23.4668 25.6006 -41.6006c0 -26.0264 -21.1201 -46.9326 -46.9336 -46.9326
s-46.9336 20.9062 -46.9336 46.9326c0 18.1338 10.4531 33.707 25.6006 41.6006v65.0664h-64c-23.6807 0 -42.667 18.9863 -42.667 42.667v44.1602c-14.9336 7.89258 -25.5996 23.0391 -25.5996 41.1729c0 25.8135 21.1191 46.9336 46.9326 46.9336
s46.9336 -21.1201 46.9336 -46.9336c0 -18.1338 -10.667 -33.2803 -25.5996 -41.1729v-44.1602h64v170.666h-42.667l64 85.334l64 -85.334h-42.667v-170.666h64v42.666h-21.333v85.334z" />
    <glyph glyph-name="uniF139" unicode="&#xf139;" 
d="M0 448h512v-512h-512v512zM149.333 64v256h42.667v-256h-42.667zM234.667 -21.333v426.666h42.666v-426.666h-42.666zM64 149.333v85.334h42.667v-85.334h-42.667zM320 64v256h42.667v-256h-42.667zM405.333 234.667h42.667v-85.334h-42.667v85.334z" />
    <glyph glyph-name="uniF13A" unicode="&#xf13a;" 
d="M28.4443 -7.11133l426.667 426.667v-426.667h-426.667zM28.4443 -7.11133l312.889 312.889v-312.889h-312.889zM0 448h512v-512h-512v512z" />
    <glyph glyph-name="uniF12A" unicode="&#xf12a;" 
d="M0 448h512v-512h-512v512zM277.333 323.627v-68.2666l-42.666 42.666v107.307h21.333l121.813 -121.6l-64.4268 -64.4268l-30.0801 30.0801l34.1338 34.1328zM115.413 362.667l311.254 -311.254l-30.0801 -30.0801l-49.0674 48.8535l-91.5195 -91.5195h-21.333v161.92
l-97.9199 -97.9199l-30.0801 30.0801l119.253 119.253l-140.587 140.587zM277.333 60.373l40.1074 40.1074l-40.1074 40.1064v-80.2139z" />
    <glyph glyph-name="uniF105" unicode="&#xf105;" 
d="M217.173 256zM448 106.667l-170.667 53.333v-117.333l42.667 -32v-32l-74.667 21.333l-74.666 -21.333v32l42.666 32v117.333l-170.666 -53.333v42.666l170.666 106.667v117.333c0 17.707 14.2939 32 32 32c17.707 0 32 -14.293 32 -32v-117.333l170.667 -106.667
v-42.666zM0 448h512v-512h-512v512z" />
  </font>
</defs>
</svg>
