<?xml version="1.0" standalone="no"?>
<!DOCTYPE svg PUBLIC "-//W3C//DTD SVG 1.1//EN" "http://www.w3.org/Graphics/SVG/1.1/DTD/svg11.dtd" >
<!--
2015-5-9: Created with FontForge (http://fontforge.org)
-->
<svg xmlns="http://www.w3.org/2000/svg" xmlns:xlink="http://www.w3.org/1999/xlink" version="1.1">
<metadata>
Created by FontForge 20150401 at Sat May  9 15:40:48 2015
 By Taras Remez
Copyright (c) 2015, Taras Remez
</metadata>
<defs>
<font id="font-device" horiz-adv-x="512" >
  <font-face 
    font-family="font-device"
    font-weight="400"
    font-stretch="normal"
    units-per-em="512"
    panose-1="2 0 5 3 0 0 0 0 0 0"
    ascent="448"
    descent="-64"
    bbox="0 -64235 29867 61717"
    underline-thickness="25.6"
    underline-position="-51.2"
    unicode-range="U+0020-F17D"
  />
    <missing-glyph />
    <glyph glyph-name="space" unicode=" " horiz-adv-x="200" 
 />
    <glyph glyph-name="uniF141" unicode="&#xf141;" 
d="M284 164v-171h171v171h-171zM57 220v171h171v-171h-171zM57 -7v171h171v-171h-171zM284 -7v171h171v-171h-171zM491 306l-121 -121l-121 121l121 121zM0 448h512v-512h-512v512z" />
    <glyph glyph-name="uniF11F" unicode="&#xf11f;" 
d="M334 363c16 0 29 -13 29 -29v-57h-86v22l-11 -22h-117v57c0 16 13 29 29 29h35v42h86v-42h35zM277 181v96h86v-270c0 -16 -13 -28 -29 -28h-156c-16 0 -29 12 -29 28v270h117l-74 -138h43v-118l85 160h-43zM0 448h512v-512h-512v512z" />
    <glyph glyph-name="uniF10C" unicode="&#xf10c;" 
d="M0 448h512v-512h-512v512zM370 334v-128h-228v128c0 16 13 29 29 29h42v42h86v-42h42c16 0 29 -13 29 -29zM142 206h228v-185c0 -16 -13 -28 -29 -28h-170c-16 0 -29 12 -29 28v185z" />
    <glyph glyph-name="uniF12C" unicode="&#xf12c;" 
d="M0 448h512v-512h-512v512zM231 178l25 78l25 -78h-50zM427 263l70 -71l-70 -71v-100h-100l-71 -70l-71 70h-100v100l-70 71l70 71v100h100l71 70l71 -70h100v-100zM305 107h41l-69 192h-42l-69 -192h41l15 42h68z" />
    <glyph glyph-name="uniF14F" unicode="&#xf14f;" 
d="M28 -7l427 427v-427h-427zM28 -7l313 313v-313h-313zM0 448h512v-512h-512v512z" />
    <glyph glyph-name="uniF11B" unicode="&#xf11b;" 
d="M334 363c16 0 29 -13 29 -29v-121h-86v86l-45 -86h-83v121c0 16 13 29 29 29h35v42h86v-42h35zM277 181v32h86v-206c0 -16 -13 -28 -29 -28h-156c-16 0 -29 12 -29 28v206h83l-40 -74h43v-118l85 160h-43zM0 448h512v-512h-512v512z" />
    <glyph glyph-name="uniF146" unicode="&#xf146;" 
d="M0 448h512v-512h-512v512zM352 394l-29 -28l-81 81l14 1c134 0 244 -104 255 -235h-32c-8 80 -57 148 -127 181zM218 411l257 -257c13 -12 13 -32 0 -45l-136 -136c-12 -13 -32 -13 -45 0l-257 257c-13 12 -13 32 0 45l136 136c12 13 32 13 45 0zM316 -4l136 136
l-256 256l-136 -136zM160 -10l29 28l81 -81l-14 -1c-134 0 -244 104 -255 235h32c8 -80 57 -148 127 -181z" />
    <glyph glyph-name="uniF104" unicode="&#xf104;" 
d="M0 448h512v-512h-512v512zM0 448h512v-512h-512v512zM0 448v-512h512v512h-512zM277 256l171 -107v-42l-68 21l-167 167v78c0 18 14 32 32 32s32 -14 32 -32v-117zM64 336l27 27l336 -336l-27 -27l-123 122v-79l43 -32v-32l-75 21l-74 -21v32l42 32v117l-170 -53v42
l127 80z" />
    <glyph glyph-name="uniF125" unicode="&#xf125;" 
d="M0 448h512v-512h-512v512zM334 363c16 0 29 -13 29 -29v-327c0 -16 -13 -28 -29 -28h-156c-16 0 -29 12 -29 28v327c0 16 13 29 29 29h35v42h86v-42h35z" />
    <glyph glyph-name="uniF14E" unicode="&#xf14e;" 
d="M43 -21l426 426v-426h-426zM299 235v-256h-256zM0 448h512v-512h-512v512z" />
    <glyph glyph-name="uniF161" unicode="&#xf161;" 
d="M448 427v-367l-183 183zM102 352l367 -368l-27 -27l-42 43h-379l189 189l-135 136zM0 448h512v-512h-512v512z" />
    <glyph glyph-name="uniF152" unicode="&#xf152;" 
d="M43 -21l426 426v-426h-426zM0 448h512v-512h-512v512z" />
    <glyph glyph-name="uniF132" unicode="&#xf132;" 
d="M0 448h512v-512h-512v512zM85 320v-235h214v-64h-299v64h43v235c0 23 19 43 42 43h384v-43h-384zM491 277c12 0 21 -9 21 -21v-213c0 -12 -9 -22 -21 -22h-128c-12 0 -22 10 -22 22v213c0 12 10 21 22 21h128zM469 85v150h-85v-150h85z" />
    <glyph glyph-name="uniF121" unicode="&#xf121;" 
d="M0 448h512v-512h-512v512zM334 363c16 0 29 -13 29 -29v-327c0 -16 -13 -28 -29 -28h-156c-16 0 -29 12 -29 28v327c0 16 13 29 29 29h35v42h86v-42h35zM235 21l85 160h-43v118l-85 -160h43v-118z" />
    <glyph glyph-name="uniF128" unicode="&#xf128;" 
d="M0 448h512v-512h-512v512zM378 284l-92 -92l92 -92l-122 -121h-21v162l-98 -98l-30 30l119 119l-119 119l30 30l98 -98v162h21zM277 324v-81l40 41zM317 100l-40 41v-81z" />
    <glyph glyph-name="uniF171" unicode="&#xf171;" 
d="M256 15v0v0l-248 309c9 7 105 85 248 85s239 -78 248 -85zM0 448h512v-473h-512v473z" />
    <glyph glyph-name="uniF17C" unicode="&#xf17c;" 
d="M0 448h512v-512h-512v512zM437 245c-59 0 -106 -47 -106 -106v-61l-75 -99l-256 341c71 54 160 85 256 85s185 -31 256 -85l-57 -76c-6 1 -12 1 -18 1zM491 107c12 0 21 -10 21 -22v-85c0 -12 -9 -21 -21 -21h-107c-12 0 -21 9 -21 21v85c0 12 9 22 21 22v32
c0 29 24 53 53 53s54 -24 54 -53v-32zM469 107v32c0 18 -14 32 -32 32s-32 -14 -32 -32v-32h64z" />
    <glyph glyph-name="uniF12B" unicode="&#xf12b;" 
d="M0 448h512v-512h-512v512zM304 192l49 49c6 -15 10 -32 10 -49s-4 -35 -10 -50zM417 305c20 -32 31 -71 31 -111c0 -42 -12 -80 -33 -113l-25 25c13 26 21 55 21 86s-8 60 -21 86zM335 284l-92 -92l92 -92l-122 -121h-21v162l-98 -98l-30 30l119 119l-119 119l30 30
l98 -98v162h21zM235 324v-81l40 41zM275 100l-40 41v-81z" />
    <glyph glyph-name="uniF117" unicode="&#xf117;" 
d="M334 363c16 0 29 -13 29 -29v-195h-66l23 42h-43v118l-85 -160h-43v195c0 16 13 29 29 29h35v42h86v-42h35zM235 21l62 118h66v-132c0 -16 -13 -28 -29 -28h-156c-16 0 -29 12 -29 28v132h86v-118zM0 448h512v-512h-512v512z" />
    <glyph glyph-name="uniF109" unicode="&#xf109;" 
d="M0 448h512v-512h-512v512zM363 334v-206h-214v206c0 16 13 29 29 29h35v42h86v-42h35c16 0 29 -13 29 -29zM149 128h214v-121c0 -16 -13 -28 -29 -28h-156c-16 0 -29 12 -29 28v121z" />
    <glyph glyph-name="uniF175" unicode="&#xf175;" horiz-adv-x="525" 
d="M256 15v0l-186 231c7 5 79 64 186 64s179 -59 186 -64zM256 15v0v0l-248 309c9 7 105 85 248 85s239 -78 248 -85zM525 290h-131v-162zM433 15v39h40v-39h-40zM433 251h40v-157h-40v157zM0 448h512v-473h-512v473z" />
    <glyph glyph-name="uniF179" unicode="&#xf179;" 
d="M0 448h512v-512h-512v512zM43 21v86h426v-86h-426zM85 85v-42h43v42h-43zM43 363h426v-86h-426v86zM128 299v42h-43v-42h43zM43 149v86h426v-86h-426zM85 213v-42h43v42h-43z" />
    <glyph glyph-name="uniF159" unicode="&#xf159;" 
d="M0 448h512v-512h-512v512zM28 -7l313 313v-313h-313zM455 420v-114h-114zM341 -7h-313l313 313v-313zM398 249h57v-142h-57v142zM398 -7v57h57v-57h-57z" />
    <glyph glyph-name="uniF163" unicode="&#xf163;" 
d="M256 -10v-1v1l-248 309c10 7 105 85 248 85s238 -78 248 -85zM0 448h512v-512h-512v512z" />
    <glyph glyph-name="uniF129" unicode="&#xf129;" 
d="M0 448h512v-512h-512v512zM149 192l-42 -43l-43 43l43 43zM378 284l-92 -92l92 -92l-122 -121h-21v162l-98 -98l-30 30l119 119l-119 119l30 30l98 -98v162h21zM277 324v-81l40 41zM317 100l-40 41v-81zM405 235l43 -43l-43 -43l-42 43z" />
    <glyph glyph-name="uniF142" unicode="&#xf142;" 
d="M277 171h171v-171h-171v171zM64 0v171h171v-171h-171zM64 384h171v-171h-171v171zM355 412l121 -121l-121 -120l-120 120zM0 448h512v-512h-512v512z" />
    <glyph glyph-name="uniF11A" unicode="&#xf11a;" 
d="M0 448h512v-512h-512v512zM341 363c16 0 29 -13 29 -29v-128h-100v114l-57 -114h-71v128c0 16 13 29 29 29h42v42h86v-42h42zM242 36l85 170h43v-185c0 -16 -13 -28 -29 -28h-170c-16 0 -29 12 -29 28v185h71l-28 -57h57v-113z" />
    <glyph glyph-name="uniF114" unicode="&#xf114;" 
d="M0 448h512v-512h-512v512zM341 363c16 0 29 -13 29 -29v-242h-100l57 114h-57v114l-85 -171h57v-57h-100v242c0 16 13 29 29 29h42v42h86v-42h42zM242 36l28 56h100v-71c0 -16 -13 -28 -29 -28h-170c-16 0 -29 12 -29 28v71h100v-56z" />
    <glyph glyph-name="uniF14B" unicode="&#xf14b;" 
d="M28 -7l427 427v-427h-427zM28 -7l200 199v-199h-200zM0 448h512v-512h-512v512z" />
    <glyph glyph-name="uniF111" unicode="&#xf111;" 
d="M0 448h512v-512h-512v512zM363 334v-57h-214v57c0 16 13 29 29 29h35v42h86v-42h35c16 0 29 -13 29 -29zM149 277h214v-270c0 -16 -13 -28 -29 -28h-156c-16 0 -29 12 -29 28v270z" />
    <glyph glyph-name="uniF122" unicode="&#xf122;" 
d="M341 363c16 0 29 -13 29 -29v-313c0 -16 -13 -28 -29 -28h-170c-16 0 -29 12 -29 28v313c0 16 13 29 29 29h42v42h86v-42h42zM0 448h512v-512h-512v512z" />
    <glyph glyph-name="uniF155" unicode="&#xf155;" 
d="M341 -7h-313l313 313v-313zM341 306l114 114v-114h-114zM398 -7v57h57v-57h-57zM228 -7h-200l200 199v-199zM398 249h57v-142h-57v142zM0 448h512v-512h-512v512z" />
    <glyph glyph-name="uniF149" unicode="&#xf149;" 
d="M28 -7l427 427v-427h-427zM0 448h512v-512h-512v512z" />
    <glyph glyph-name="uniF10F" unicode="&#xf10f;" 
d="M0 448h512v-512h-512v512zM363 334v-78h-214v78c0 16 13 29 29 29h35v42h86v-42h35c16 0 29 -13 29 -29zM149 256h214v-249c0 -16 -13 -28 -29 -28h-156c-16 0 -29 12 -29 28v249z" />
    <glyph glyph-name="uniF178" unicode="&#xf178;" 
d="M256 369c-84 0 -150 -30 -190 -54l190 -237l191 237c-41 24 -107 54 -191 54zM256 409c143 0 239 -78 248 -85l-248 -309v0v0l-248 309c9 7 105 85 248 85zM0 448h512v-473h-512v473z" />
    <glyph glyph-name="uniF10B" unicode="&#xf10b;" 
d="M0 448h512v-512h-512v512zM363 334v-163h-214v163c0 16 13 29 29 29h35v42h86v-42h35c16 0 29 -13 29 -29zM149 171h214v-164c0 -16 -13 -28 -29 -28h-156c-16 0 -29 12 -29 28v164z" />
    <glyph glyph-name="uniF107" unicode="&#xf107;" 
d="M0 448h512v-512h-512v512zM149 85h214v-78c0 -16 -13 -28 -29 -28h-156c-16 0 -29 12 -29 28v78zM363 334v-249h-214v249c0 16 13 29 29 29h35v42h86v-42h35c16 0 29 -13 29 -29z" />
    <glyph glyph-name="uniF137" unicode="&#xf137;" 
d="M0 448h512v-512h-512v512zM447 213h44v-42h-44c-3 -24 -10 -48 -21 -68l-32 32c7 17 11 37 11 57c0 83 -66 149 -149 149c-20 0 -40 -4 -57 -11l-32 32c21 11 44 18 68 21v44h42v-44c89 -10 160 -81 170 -170zM64 357l27 27l357 -357l-27 -27l-44 44
c-28 -23 -62 -39 -100 -43v-44h-42v44c-89 10 -160 81 -170 170h-44v42h44c4 38 20 72 43 100zM347 74l-209 209c-19 -25 -31 -57 -31 -91c0 -83 66 -149 149 -149c34 0 66 12 91 31z" />
    <glyph glyph-name="uniF172" unicode="&#xf172;" 
d="M0 448h512v-473h-512v473zM477 290h-83v-104l-138 -171v0v0l-248 309c9 7 105 85 248 85s238 -78 248 -85zM145 154c4 3 47 38 111 38s107 -35 111 -38l-111 -139v0v0zM433 15v39h40v-39h-40zM433 251h40v-157h-40v157z" />
    <glyph glyph-name="uniF138" unicode="&#xf138;" 
d="M0 448h512v-512h-512v512zM447 213h44v-42h-44c-10 -89 -81 -160 -170 -170v-44h-42v44c-89 10 -160 81 -170 170h-44v42h44c10 89 81 160 170 170v44h42v-44c89 -10 160 -81 170 -170zM256 43c83 0 149 66 149 149s-66 149 -149 149s-149 -66 -149 -149
s66 -149 149 -149z" />
    <glyph glyph-name="uniF134" unicode="&#xf134;" 
d="M0 448h512v-512h-512v512zM256 277c47 0 85 -38 85 -85s-38 -85 -85 -85s-85 38 -85 85s38 85 85 85zM447 213h44v-42h-44c-10 -89 -81 -160 -170 -170v-44h-42v44c-89 10 -160 81 -170 170h-44v42h44c10 89 81 160 170 170v44h42v-44c89 -10 160 -81 170 -170zM256 43
c83 0 149 66 149 149s-66 149 -149 149s-149 -66 -149 -149s66 -149 149 -149z" />
    <glyph glyph-name="uniF14A" unicode="&#xf14a;" 
d="M43 -21l426 426v-426h-426zM0 448h512v-512h-512v512z" />
    <glyph glyph-name="uniF13B" unicode="&#xf13b;" 
d="M43 -21l426 426v-426h-426zM363 299v-320h-320zM0 448h512v-512h-512v512z" />
    <glyph glyph-name="uniF144" unicode="&#xf144;" 
d="M0 448h512v-512h-512v512zM213 107c-12 0 -21 9 -21 21v64c0 12 9 21 21 21v22c0 23 19 42 43 42c23 0 43 -18 43 -42v-22c12 0 21 -9 21 -21v-64c0 -12 -9 -21 -21 -21h-86zM230 235v-22h52v22c0 14 -12 25 -26 25s-26 -11 -26 -25zM363 427c23 0 42 -20 42 -43v-384
c0 -23 -19 -43 -42 -43h-214c-23 0 -42 20 -42 43v384c0 23 19 43 42 43h214zM363 43v298h-214v-298h214z" />
    <glyph glyph-name="uniF115" unicode="&#xf115;" 
d="M235 21l34 64h94v-78c0 -16 -13 -28 -29 -28h-156c-16 0 -29 12 -29 28v78h86v-64zM334 363c16 0 29 -13 29 -29v-249h-94l51 96h-43v118l-85 -160h43v-54h-86v249c0 16 13 29 29 29h35v42h86v-42h35zM0 448h512v-512h-512v512z" />
    <glyph glyph-name="uniF15A" unicode="&#xf15a;" 
d="M0 448h512v-512h-512v512zM469 277h-85v-298h-341l426 426v-128zM363 -21h-320l320 320v-320zM427 235h42v-171h-42v171zM427 -21v42h42v-42h-42z" />
    <glyph glyph-name="uniF16B" unicode="&#xf16b;" 
d="M256 -10v-1v1l-248 309c10 7 105 85 248 85s238 -78 248 -85zM0 448h512v-512h-512v512z" />
    <glyph glyph-name="uniF15C" unicode="&#xf15c;" 
d="M0 448h512v-512h-512v512zM427 64v171h42v-171h-42zM427 -21v42h42v-42h-42zM43 -21l426 426v-128h-85v-298h-341z" />
    <glyph glyph-name="uniF17A" unicode="&#xf17a;" 
d="M0 448h512v-512h-512v512zM313 263h57v-57h-14v-42c0 -16 -13 -29 -29 -29h-57v-59c16 -6 29 -22 29 -40c0 -24 -19 -43 -43 -43s-43 19 -43 43c0 18 13 34 29 40v59h-57c-16 0 -29 13 -29 29v43c-10 5 -17 16 -17 28c0 17 15 31 32 31s31 -14 31 -31
c0 -12 -7 -23 -17 -28v-43h57v142h-43l57 85l57 -85h-43v-142h57v42h-14v57z" />
    <glyph glyph-name="uniF143" unicode="&#xf143;" 
d="M0 448h512v-512h-512v512zM448 341c23 0 43 -19 43 -42v-214c0 -23 -20 -42 -43 -42h-384c-23 0 -43 19 -43 42v214c0 23 20 42 43 42h384zM405 85v214h-298v-214h298zM213 107c-12 0 -21 9 -21 21v64c0 12 9 21 21 21v22c0 23 19 42 43 42c23 0 43 -18 43 -42v-22
c12 0 21 -9 21 -21v-64c0 -12 -9 -21 -21 -21h-86zM230 235v-22h52v22c0 14 -12 25 -26 25s-26 -11 -26 -25z" />
    <glyph glyph-name="uniF148" unicode="&#xf148;" 
d="M0 448h512v-512h-512v512zM192 107c-35 0 -64 29 -64 64c0 33 25 60 57 63h4c12 25 37 43 67 43c38 0 69 -28 74 -64h1c29 0 53 -24 53 -53s-24 -53 -53 -53h-139zM448 384c23 0 43 -20 43 -43v-298c0 -23 -20 -43 -43 -43h-384c-23 0 -43 20 -43 43v298
c0 23 20 43 43 43h384zM448 42v300h-384v-300h384z" />
    <glyph glyph-name="uniF162" unicode="&#xf162;" 
d="M256 -7v0l-251 312c10 7 107 86 251 86s241 -79 251 -86zM0 448h512v-512h-512v512z" />
    <glyph glyph-name="uniF168" unicode="&#xf168;" 
d="M256 -7v0l-251 312c10 7 107 86 251 86s241 -79 251 -86zM0 448h512v-512h-512v512zM78 215c9 7 77 62 178 62s170 -55 179 -62l-179 -222v0v0z" />
    <glyph glyph-name="uniF158" unicode="&#xf158;" 
d="M0 448h512v-512h-512v512zM469 277h-85v-298h-341l426 426v-128zM299 -21h-256l256 256v-256zM427 235h42v-171h-42v171zM427 -21v42h42v-42h-42z" />
    <glyph glyph-name="uniF151" unicode="&#xf151;" 
d="M28 -7l427 427v-427h-427zM0 448h512v-512h-512v512z" />
    <glyph glyph-name="uniF176" unicode="&#xf176;" 
d="M433 15v39h40v-39h-40zM256 409c143 0 238 -78 248 -85l-27 -34h-83v-104l-138 -171v0v0l-248 309c9 7 105 85 248 85zM433 94v157h40v-157h-40zM0 448h512v-473h-512v473z" />
    <glyph glyph-name="uniF150" unicode="&#xf150;" 
d="M43 -21l426 426v-426h-426zM363 299v-320h-320zM0 448h512v-512h-512v512z" />
    <glyph glyph-name="uniF16D" unicode="&#xf16d;" 
d="M0 448h512v-512h-512v512zM504 299l-116 -145l-221 220c27 6 57 10 89 10c143 0 238 -78 248 -85zM364 123l73 -74l-27 -27l-71 71l-83 -103v-1v1l-248 309c5 4 32 26 78 47l-43 44l27 27z" />
    <glyph glyph-name="uniF127" unicode="&#xf127;" 
d="M0 448h512v-512h-512v512zM334 363c16 0 29 -13 29 -29v-327c0 -16 -13 -28 -29 -28h-156c-16 0 -29 12 -29 28v327c0 16 13 29 29 29h35v42h86v-42h35zM276 65v41h-40v-41h40zM305 177c9 9 15 22 15 36c0 35 -29 64 -64 64s-64 -29 -64 -64h32c0 18 14 32 32 32
s32 -14 32 -32c0 -9 -3 -16 -9 -22l-20 -20c-10 -10 -20 -25 -20 -43h34c0 10 8 24 18 34c6 6 14 15 14 15z" />
    <glyph glyph-name="uniF17D" unicode="&#xf17d;" 
d="M0 448h512v-512h-512v512zM256 213c23 0 43 -19 43 -42s-20 -43 -43 -43s-43 20 -43 43s20 42 43 42zM384 171c0 -47 -26 -89 -64 -111l-21 37c25 15 42 42 42 74c0 47 -38 85 -85 85s-85 -38 -85 -85c0 -32 17 -59 42 -74l-21 -37c-38 22 -64 64 -64 111
c0 71 57 128 128 128s128 -57 128 -128zM256 384c118 0 213 -95 213 -213c0 -79 -42 -148 -106 -185l-22 37c51 30 86 85 86 148c0 94 -77 170 -171 170s-171 -76 -171 -170c0 -63 34 -118 85 -148l-21 -37c-64 37 -106 106 -106 185c0 118 95 213 213 213z" />
    <glyph glyph-name="uniF10E" unicode="&#xf10e;" 
d="M0 448h512v-512h-512v512zM370 334v-71h-228v71c0 16 13 29 29 29h42v42h86v-42h42c16 0 29 -13 29 -29zM142 263h228v-242c0 -16 -13 -28 -29 -28h-170c-16 0 -29 12 -29 28v242z" />
    <glyph glyph-name="uniF15E" unicode="&#xf15e;" 
d="M398 282l-232 -232h232v232zM455 420v-427h-427zM0 448h512v-512h-512v512z" />
    <glyph glyph-name="uniF16E" unicode="&#xf16e;" 
d="M256 15l-111 139c4 3 47 38 111 38s107 -35 111 -38zM256 15v0v0l-248 309c9 7 105 85 248 85s239 -78 248 -85zM0 448h512v-473h-512v473z" />
    <glyph glyph-name="uniF145" unicode="&#xf145;" 
d="M496 176c13 -12 13 -33 0 -46l-136 -135c-12 -13 -32 -13 -45 0l-256 256c-13 12 -13 32 0 45l135 136c12 13 33 13 46 0l52 -52l-30 -30l-45 44l-121 -120l242 -242l120 121l-47 47l30 30zM181 11l28 28l81 -81l-14 -1c-134 0 -244 104 -255 235h32
c8 -80 58 -148 128 -181zM341 256c-12 0 -21 9 -21 21v86c0 12 9 21 21 21v11c0 29 25 53 54 53s53 -24 53 -53v-11c12 0 21 -9 21 -21v-86c0 -12 -9 -21 -21 -21h-107zM358 395v-11h73v11c0 20 -16 36 -36 36s-37 -16 -37 -36zM0 448h512v-512h-512v512z" />
    <glyph glyph-name="uniF103" unicode="&#xf103;" 
d="M0 448h512v-512h-512v512zM168 376l-98 -82l-27 32l98 82zM469 326l-27 -33l-98 83l27 32zM256 363c106 0 192 -86 192 -192s-86 -192 -192 -192s-192 86 -192 192s86 192 192 192zM256 21c83 0 149 67 149 150s-66 149 -149 149s-149 -66 -149 -149s66 -150 149 -150z
M277 256v-64h64v-43h-64v-64h-42v64h-64v43h64v64h42z" />
    <glyph glyph-name="uniF174" unicode="&#xf174;" 
d="M0 448h512v-473h-512v473zM477 290h-83v-104l-138 -171v0v0l-248 309c9 7 105 85 248 85s238 -78 248 -85zM107 200c6 4 63 51 149 51c67 0 117 -29 138 -43v-22l-138 -171v0v0zM433 251h40v-157h-40v157zM433 15v39h40v-39h-40z" />
    <glyph glyph-name="uniF12D" unicode="&#xf12d;" 
d="M0 448h512v-512h-512v512zM427 263l70 -71l-70 -71v-100h-100l-71 -70l-71 70h-100v100l-70 71l70 71v100h100l71 70l71 -70h100v-100zM256 64c71 0 128 57 128 128s-57 128 -128 128s-128 -57 -128 -128s57 -128 128 -128zM256 277c47 0 85 -38 85 -85s-38 -85 -85 -85
s-85 38 -85 85s38 85 85 85z" />
    <glyph glyph-name="uniF173" unicode="&#xf173;" 
d="M477 290h-83v-104l-138 -171v0v0l-248 309c9 7 105 85 248 85s238 -78 248 -85zM433 15v39h40v-39h-40zM433 251h40v-157h-40v157zM0 448h512v-473h-512v473z" />
    <glyph glyph-name="uniF123" unicode="&#xf123;" 
d="M0 448h512v-512h-512v512zM334 363c16 0 29 -13 29 -29v-327c0 -16 -13 -28 -29 -28h-156c-16 0 -29 12 -29 28v327c0 16 13 29 29 29h35v42h86v-42h35z" />
    <glyph glyph-name="uniF112" unicode="&#xf112;" 
d="M0 448h512v-512h-512v512zM341 363c16 0 29 -13 29 -29v-313c0 -16 -13 -28 -29 -28h-170c-16 0 -29 12 -29 28v313c0 16 13 29 29 29h42v42h86v-42h42zM284 78v57h-56v-57h56zM284 164v113h-56v-113h56z" />
    <glyph glyph-name="uniF166" unicode="&#xf166;" 
d="M256 -7v0l-251 312c10 7 107 86 251 86s241 -79 251 -86zM0 448h512v-512h-512v512zM113 171c7 5 62 49 143 49s136 -44 143 -49l-143 -178v0v0z" />
    <glyph glyph-name="uniF169" unicode="&#xf169;" 
d="M256 -10v-1v1l-248 309c10 7 105 85 248 85s238 -78 248 -85zM0 448h512v-512h-512v512zM75 214c9 7 78 63 181 63s172 -56 181 -63l-181 -224v-1v1z" />
    <glyph glyph-name="uniF154" unicode="&#xf154;" 
d="M0 448h512v-512h-512v512zM469 277h-85v-298h-341l426 426v-128zM427 -21v42h42v-42h-42zM427 235h42v-171h-42v171z" />
    <glyph glyph-name="uniF167" unicode="&#xf167;" 
d="M256 -10v-1v1l-248 309c10 7 105 85 248 85s238 -78 248 -85zM0 448h512v-512h-512v512zM102 181c8 6 67 54 154 54s146 -48 154 -54l-154 -191v-1v0z" />
    <glyph glyph-name="uniF116" unicode="&#xf116;" 
d="M0 448h512v-512h-512v512zM341 363c16 0 29 -13 29 -29v-185h-71l28 57h-57v114l-85 -171h-43v185c0 16 13 29 29 29h42v42h86v-42h42zM242 36l57 113h71v-128c0 -16 -13 -28 -29 -28h-170c-16 0 -29 12 -29 28v128h100v-113z" />
    <glyph glyph-name="uniF12E" unicode="&#xf12e;" 
d="M0 448h512v-512h-512v512zM427 121v-100h-100l-71 -70l-71 70h-100v100l-70 71l70 71v100h100l71 70l71 -70h100v-100l70 -71zM256 64c71 0 128 57 128 128s-57 128 -128 128s-128 -57 -128 -128s57 -128 128 -128z" />
    <glyph glyph-name="uniF100" unicode="&#xf100;" 
d="M0 448h512v-512h-512v512zM469 326l-27 -33l-98 83l27 32zM168 376l-98 -82l-27 32l98 82zM267 277v-112l85 -50l-16 -26l-101 60v128h32zM256 363c106 0 192 -86 192 -192s-86 -192 -192 -192s-192 86 -192 192s86 192 192 192zM256 21c83 0 149 67 149 150
s-66 149 -149 149s-149 -66 -149 -149s66 -150 149 -150z" />
    <glyph glyph-name="uniF15B" unicode="&#xf15b;" 
d="M0 448h512v-512h-512v512zM341 306l114 114v-114h-114zM398 -7v57h57v-57h-57zM398 249h57v-142h-57v142zM341 -7h-313l313 313v-313z" />
    <glyph glyph-name="uniF15F" unicode="&#xf15f;" 
d="M427 302l-281 -281h281v281zM469 405v-426h-426zM0 448h512v-512h-512v512z" />
    <glyph glyph-name="uniF131" unicode="&#xf131;" 
d="M0 448h512v-512h-512v512zM149 341v-42h-42v85c0 23 19 43 42 43l214 -1c23 0 42 -19 42 -42v-85h-42v42h-214zM329 94l-30 30l67 68l-67 68l30 30l98 -98zM213 124l-30 -30l-98 98l98 98l30 -30l-67 -68zM363 43v42h42v-85c0 -23 -19 -43 -42 -43h-214
c-23 0 -42 20 -42 43v85h42v-42h214z" />
    <glyph glyph-name="uniF13C" unicode="&#xf13c;" 
d="M256 -7v0l-251 312c10 7 107 86 251 86s241 -79 251 -86zM0 448h512v-512h-512v512zM78 215c9 7 77 62 178 62s170 -55 179 -62l-179 -222v0v0z" />
    <glyph glyph-name="uniF140" unicode="&#xf140;" 
d="M85 363v-150h-42v150c0 23 19 42 42 42h150v-42h-150zM213 171l64 -79l43 57l64 -85h-256zM363 267c0 -18 -14 -32 -32 -32s-32 14 -32 32s14 32 32 32s32 -14 32 -32zM427 405c23 0 42 -19 42 -42v-150h-42v150h-150v42h150zM427 21v150h42v-150c0 -23 -19 -42 -42 -42
h-150v42h150zM85 171v-150h150v-42h-150c-23 0 -42 19 -42 42v150h42zM0 448h512v-512h-512v512z" />
    <glyph glyph-name="uniF153" unicode="&#xf153;" 
d="M0 448h512v-512h-512v512zM341 306l114 114v-114h-114zM341 -7h-313l313 313v-313zM398 -7v57h57v-57h-57zM398 249h57v-142h-57v142z" />
    <glyph glyph-name="uniF15D" unicode="&#xf15d;" horiz-adv-x="29867" 
d="M0 61717h29867v-76800h-29867v76800zM13163 448v-512h554v512h-554zM13184 448h512v-512h-512v512zM13589 341v-249l-242 242l50 50h150c23 0 42 -20 42 -43zM13262 365l373 -372l-28 -28l-40 41c-6 -3 -13 -6 -20 -6h-214c-23 0 -42 20 -42 43v239l-56 56zM13184 448
h512v-512h-512v512z" />
    <glyph glyph-name="uniF11E" unicode="&#xf11e;" 
d="M0 448h512v-512h-512v512zM341 363c16 0 29 -13 29 -29v-42h-100v28l-14 -28h-114v42c0 16 13 29 29 29h28v42h114v-42h28zM270 206v86h100v-271c0 -16 -13 -28 -29 -28h-170c-16 0 -29 12 -29 28v271h114l-71 -143h57v-113l85 170h-57z" />
    <glyph glyph-name="uniF164" unicode="&#xf164;" 
d="M256 -7v0l-251 312c10 7 107 86 251 86s241 -79 251 -86zM0 448h512v-512h-512v512zM149 126c5 4 46 38 107 38s102 -34 107 -38l-107 -133z" />
    <glyph glyph-name="uniF11C" unicode="&#xf11c;" 
d="M0 448h512v-512h-512v512zM341 363c16 0 29 -13 29 -29v-71h-100v57l-28 -57h-100v71c0 16 13 29 29 29h42v42h86v-42h42zM270 206v57h100v-242c0 -16 -13 -28 -29 -28h-170c-16 0 -29 12 -29 28v242h100l-57 -114h57v-113l85 170h-57z" />
    <glyph glyph-name="uniF14D" unicode="&#xf14d;" 
d="M28 -7l427 427v-427h-427zM28 -7l256 256v-256h-256zM0 448h512v-512h-512v512z" />
    <glyph glyph-name="uniF118" unicode="&#xf118;" 
d="M0 448h512v-512h-512v512zM341 363c16 0 29 -13 29 -29v-156h-57l14 28h-57v114l-71 -142h-57v156c0 16 13 29 29 29h42v42h86v-42h42zM242 36l71 142h57v-157c0 -16 -13 -28 -29 -28h-170c-16 0 -29 12 -29 28v157h57l-14 -29h57v-113z" />
    <glyph glyph-name="uniF106" unicode="&#xf106;" 
d="M0 448h512v-512h-512v512zM370 334v-242h-228v242c0 16 13 29 29 29h42v42h86v-42h42c16 0 29 -13 29 -29zM142 92h228v-71c0 -16 -13 -28 -29 -28h-170c-16 0 -29 12 -29 28v71z" />
    <glyph glyph-name="uniF119" unicode="&#xf119;" 
d="M0 448h512v-512h-512v512zM192 139h43v-118l74 139h-106zM277 181v118l-62 -118l-12 -21h106l11 21h-43zM309 160h54v-153c0 -16 -13 -28 -29 -28h-156c-16 0 -29 12 -29 28v153h54l-11 -21h43v-118zM334 363c16 0 29 -13 29 -29v-174h-54l11 21h-43v118l-74 -139h-54
v174c0 16 13 29 29 29h35v42h86v-42h35z" />
    <glyph glyph-name="uniF165" unicode="&#xf165;" 
d="M256 -10v-1v1l-248 309c10 7 105 85 248 85s238 -78 248 -85zM0 448h512v-512h-512v512zM142 131c6 4 49 40 114 40s108 -36 114 -40l-114 -141v-1v1z" />
    <glyph glyph-name="uniF177" unicode="&#xf177;" 
d="M0 448h512v-473h-512v473zM414 281c-54 0 -99 -45 -99 -99c0 -25 9 -47 24 -64l-83 -103v0v0l-248 309c9 7 105 85 248 85s239 -79 248 -86l-44 -55c-14 8 -29 13 -46 13zM414 251c38 0 69 -31 69 -69c0 -15 -6 -29 -16 -39l-16 -16c-13 -12 -20 -22 -20 -48h-35v8
c0 19 8 37 20 49l22 22c6 6 10 15 10 24c0 19 -15 35 -34 35s-35 -16 -35 -35h-34c0 38 31 69 69 69zM395 16v37h37v-37h-37z" />
    <glyph glyph-name="uniF135" unicode="&#xf135;" 
d="M0 448h512v-512h-512v512zM447 213h44v-42h-44c-10 -89 -81 -160 -170 -170v-44h-42v44c-89 10 -160 81 -170 170h-44v42h44c10 89 81 160 170 170v44h42v-44c89 -10 160 -81 170 -170zM256 43c83 0 149 66 149 149s-66 149 -149 149s-149 -66 -149 -149
s66 -149 149 -149z" />
    <glyph glyph-name="uniF113" unicode="&#xf113;" 
d="M0 448h512v-512h-512v512zM334 363c16 0 29 -13 29 -29v-327c0 -16 -13 -28 -29 -28h-156c-16 0 -29 12 -29 28v327c0 16 13 29 29 29h35v42h86v-42h35zM277 64v43h-42v-43h42zM277 149v107h-42v-107h42z" />
    <glyph glyph-name="uniF130" unicode="&#xf130;" 
d="M0 448h512v-512h-512v512zM277 404c108 -11 192 -101 192 -212c0 -31 -6 -61 -18 -87l-56 33c6 17 10 35 10 54c0 75 -56 138 -128 148v64zM256 43c47 0 89 22 116 56l56 -33c-39 -53 -101 -87 -172 -87c-118 0 -213 95 -213 213c0 111 84 201 192 212v-64
c-72 -10 -128 -73 -128 -148c0 -83 66 -149 149 -149z" />
    <glyph glyph-name="uniF11D" unicode="&#xf11d;" 
d="M334 363c16 0 29 -13 29 -29v-78h-86v43l-22 -43h-106v78c0 16 13 29 29 29h35v42h86v-42h35zM277 181v75h86v-249c0 -16 -13 -28 -29 -28h-156c-16 0 -29 12 -29 28v249h106l-63 -117h43v-118l85 160h-43zM0 448h512v-512h-512v512z" />
    <glyph glyph-name="uniF13E" unicode="&#xf13e;" 
d="M85 21v342h342v-342h-342zM427 405c23 0 42 -19 42 -42v-342c0 -23 -19 -42 -42 -42h-342c-23 0 -42 19 -42 42v342c0 23 19 42 42 42h342zM427 21v342h-342v-342h342zM384 320v-256h-256v256h85v-43h-42v-170h170v170h-64v-48c13 -7 22 -21 22 -37
c0 -23 -20 -43 -43 -43s-43 20 -43 43c0 16 9 30 22 37v48c0 23 19 43 42 43h107zM0 448h512v-512h-512v512z" />
    <glyph glyph-name="uniF16F" unicode="&#xf16f;" 
d="M256 15v0v0l-248 309c9 7 105 85 248 85s239 -78 248 -85zM256 15v0l-149 185c6 4 63 51 149 51s143 -47 149 -51zM0 448h512v-473h-512v473z" />
    <glyph glyph-name="uniF14C" unicode="&#xf14c;" 
d="M43 -21l426 426v-426h-426zM256 192v-213h-213zM0 448h512v-512h-512v512z" />
    <glyph glyph-name="uniF160" unicode="&#xf160;" 
d="M0 448h512v-512h-512v512zM441 420v-353l-176 176zM102 352l367 -368l-27 -27l-42 43l-7 7h-365l182 182l-135 136z" />
    <glyph glyph-name="uniF12F" unicode="&#xf12f;" 
d="M0 448h512v-512h-512v512zM427 121v-100h-100l-71 -70l-71 70h-100v100l-70 71l70 71v100h100l71 70l71 -70h100v-100l70 -71zM256 64c71 0 128 57 128 128s-57 128 -128 128v-256z" />
    <glyph glyph-name="uniF10D" unicode="&#xf10d;" 
d="M0 448h512v-512h-512v512zM363 334v-121h-214v121c0 16 13 29 29 29h35v42h86v-42h35c16 0 29 -13 29 -29zM149 213h214v-206c0 -16 -13 -28 -29 -28h-156c-16 0 -29 12 -29 28v206z" />
    <glyph glyph-name="uniF133" unicode="&#xf133;" 
d="M0 448h512v-512h-512v512zM448 384c23 0 43 -20 43 -43l-1 -256c0 -23 -19 -42 -42 -42h-107v-43h-170v43h-107c-23 0 -43 19 -43 42v256c0 23 20 43 43 43h384zM448 85v256h-384v-256h384zM405 277v-42h-234v42h234zM405 192v-43h-234v43h234zM149 277v-42h-42v42h42z
M149 192v-43h-42v43h42z" />
    <glyph glyph-name="uniF101" unicode="&#xf101;" horiz-adv-x="29867" 
d="M0 12565h29867v-76800h-29867v76800zM13184 448v-512h512v512h-512zM13653 326l-27 -32l-99 84l28 32zM13353 375l-99 -81l-27 32l98 81zM13451 277v-113l85 -51l-17 -26l-100 62v128h32zM13440 363c107 0 192 -85 192 -192s-85 -192 -192 -192s-192 85 -192 192
s85 192 192 192zM13440 21c83 0 149 67 149 150s-66 149 -149 149s-149 -66 -149 -149s66 -150 149 -150z" />
    <glyph glyph-name="uniF10A" unicode="&#xf10a;" 
d="M0 448h512v-512h-512v512zM370 334v-156h-228v156c0 16 13 29 29 29h42v42h86v-42h42c16 0 29 -13 29 -29zM142 178h228v-157c0 -16 -13 -28 -29 -28h-170c-16 0 -29 12 -29 28v157z" />
    <glyph glyph-name="uniF13D" unicode="&#xf13d;" 
d="M256 -10v-1v1l-248 309c10 7 105 85 248 85s238 -78 248 -85zM0 448h512v-512h-512v512zM75 214c9 7 78 63 181 63s172 -56 181 -63l-181 -224v-1v1z" />
    <glyph glyph-name="uniF13F" unicode="&#xf13f;" 
d="M0 448h512v-512h-512v512zM370 277c0 -16 -13 -28 -29 -28s-28 12 -28 28s12 29 28 29s29 -13 29 -29zM236 80l71 92l91 -122h-284l71 91zM85 363v-143h-57v143c0 31 26 57 57 57h143v-57h-143zM427 21v143h57v-143c0 -31 -26 -57 -57 -57h-143v57h143zM85 164v-143h143
v-57h-143c-31 0 -57 26 -57 57v143h57zM427 420c31 0 57 -26 57 -57v-143h-57v143h-143v57h143z" />
    <glyph glyph-name="uniF156" unicode="&#xf156;" 
d="M0 448h512v-512h-512v512zM469 277h-85v-298h-341l426 426v-128zM427 235h42v-171h-42v171zM256 -21h-213l213 213v-213zM427 -21v42h42v-42h-42z" />
    <glyph glyph-name="uniF120" unicode="&#xf120;" 
d="M0 448h512v-512h-512v512zM341 363c16 0 29 -13 29 -29v-313c0 -16 -13 -28 -29 -28h-170c-16 0 -29 12 -29 28v313c0 16 13 29 29 29h42v42h86v-42h42zM242 36l85 170h-57v114l-85 -171h57v-113z" />
    <glyph glyph-name="uniF102" unicode="&#xf102;" 
d="M256 405c118 0 213 -95 213 -213s-95 -213 -213 -213s-213 95 -213 213s95 213 213 213zM256 21c94 0 171 77 171 171s-77 171 -171 171s-171 -77 -171 -171s77 -171 171 -171zM0 448h512v-512h-512v512zM267 299v-112l96 -57l-16 -27l-112 68v128h32z" />
    <glyph glyph-name="uniF108" unicode="&#xf108;" 
d="M0 448h512v-512h-512v512zM370 334v-213h-228v213c0 16 13 29 29 29h42v42h86v-42h42c16 0 29 -13 29 -29zM142 121h228v-100c0 -16 -13 -28 -29 -28h-170c-16 0 -29 12 -29 28v100z" />
    <glyph glyph-name="uniF147" unicode="&#xf147;" 
d="M0 448h512v-512h-512v512zM384 405c23 0 43 -19 43 -42v-342c0 -23 -20 -42 -43 -42h-256c-23 0 -43 19 -43 42l1 256l127 128h171zM256 277v86h-43v-86h43zM320 277v86h-43v-86h43zM384 277v86h-43v-86h43z" />
    <glyph glyph-name="uniF110" unicode="&#xf110;" 
d="M0 448h512v-512h-512v512zM370 334v-42h-228v42c0 16 13 29 29 29h42v42h86v-42h42c16 0 29 -13 29 -29zM142 292h228v-271c0 -16 -13 -28 -29 -28h-170c-16 0 -29 12 -29 28v271z" />
    <glyph glyph-name="uniF170" unicode="&#xf170;" 
d="M256 15v0l-186 231c7 5 79 64 186 64s179 -59 186 -64zM256 15v0v0l-248 309c9 7 105 85 248 85s239 -78 248 -85zM0 448h512v-473h-512v473z" />
    <glyph glyph-name="uniF16C" unicode="&#xf16c;" 
d="M0 448h512v-512h-512v512zM507 305l-121 -150l-224 225c28 7 60 11 94 11c144 0 241 -79 251 -86zM43 390l27 27l367 -367l-27 -28l-70 71l-2 2l-82 -102v0v0l-251 312c5 4 32 25 76 46z" />
    <glyph glyph-name="uniF124" unicode="&#xf124;" 
d="M341 363c16 0 29 -13 29 -29v-313c0 -16 -13 -28 -29 -28h-170c-16 0 -29 12 -29 28v313c0 16 13 29 29 29h42v42h86v-42h42zM0 448h512v-512h-512v512z" />
    <glyph glyph-name="uniF136" unicode="&#xf136;" 
d="M0 448h512v-512h-512v512zM447 213h44v-42h-44c-3 -24 -10 -48 -21 -68l-32 32c7 17 11 37 11 57c0 83 -66 149 -149 149c-20 0 -40 -4 -57 -11l-32 32c21 11 44 18 68 21v44h42v-44c89 -10 160 -81 170 -170zM64 357l27 27l357 -357l-27 -27l-44 44
c-28 -23 -62 -39 -100 -43v-44h-42v44c-89 10 -160 81 -170 170h-44v42h44c4 38 20 72 43 100zM347 74l-209 209c-19 -25 -31 -57 -31 -91c0 -83 66 -149 149 -149c34 0 66 12 91 31z" />
    <glyph glyph-name="uniF16A" unicode="&#xf16a;" 
d="M256 -7v0l-251 312c10 7 107 86 251 86s241 -79 251 -86zM0 448h512v-512h-512v512z" />
    <glyph glyph-name="uniF157" unicode="&#xf157;" 
d="M0 448h512v-512h-512v512zM455 420v-114h-114zM28 -7l313 313v-313h-313zM284 -7h-256l256 256v-256zM398 249h57v-142h-57v142zM398 -7v57h57v-57h-57z" />
    <glyph glyph-name="uniF126" unicode="&#xf126;" 
d="M0 448h512v-512h-512v512zM341 363c16 0 29 -13 29 -29v-313c0 -16 -13 -28 -29 -28h-170c-16 0 -29 12 -29 28v313c0 16 13 29 29 29h42v42h86v-42h42zM279 55v46h-46v-46h46zM311 195c10 10 16 24 16 40c0 39 -32 71 -71 71s-71 -32 -71 -71h36c0 20 15 35 35 35
s36 -15 36 -35c0 -10 -4 -18 -11 -25l-22 -23c-11 -11 -26 -32 -26 -52h42c0 11 9 32 20 43c7 7 16 17 16 17z" />
    <glyph glyph-name="uniF17B" unicode="&#xf17b;" 
d="M0 448h512v-512h-512v512zM320 299h85v-86h-21v-42c0 -24 -19 -43 -43 -43h-64v-65c15 -8 26 -24 26 -42c0 -26 -21 -47 -47 -47s-47 21 -47 47c0 18 11 34 26 42v65h-64c-24 0 -43 19 -43 43v44c-15 8 -26 23 -26 41c0 26 21 47 47 47s47 -21 47 -47
c0 -18 -10 -33 -25 -41v-44h64v170h-43l64 86l64 -86h-43v-170h64v42h-21v86z" />
    <glyph glyph-name="uniF139" unicode="&#xf139;" 
d="M0 448h512v-512h-512v512zM149 64v256h43v-256h-43zM235 -21v426h42v-426h-42zM64 149v86h43v-86h-43zM320 64v256h43v-256h-43zM405 235h43v-86h-43v86z" />
    <glyph glyph-name="uniF13A" unicode="&#xf13a;" 
d="M28 -7l427 427v-427h-427zM28 -7l313 313v-313h-313zM0 448h512v-512h-512v512z" />
    <glyph glyph-name="uniF12A" unicode="&#xf12a;" 
d="M0 448h512v-512h-512v512zM277 324v-69l-42 43v107h21l122 -121l-65 -65l-30 30l34 35zM115 363l312 -312l-30 -30l-49 49l-92 -91h-21v162l-98 -98l-30 30l119 119l-141 141zM277 60l40 40l-40 41v-81z" />
    <glyph glyph-name="uniF105" unicode="&#xf105;" 
d="M217 256zM448 107l-171 53v-117l43 -32v-32l-75 21l-74 -21v32l42 32v117l-170 -53v42l170 107v117c0 18 14 32 32 32s32 -14 32 -32v-117l171 -107v-42zM0 448h512v-512h-512v512z" />
  </font>
</defs>
</svg>
