<?xml version="1.0" standalone="no"?>
<!DOCTYPE svg PUBLIC "-//W3C//DTD SVG 1.1//EN" "http://www.w3.org/Graphics/SVG/1.1/DTD/svg11.dtd" >
<!--
2015-5-9: Created with FontForge (http://fontforge.org)
-->
<svg xmlns="http://www.w3.org/2000/svg" xmlns:xlink="http://www.w3.org/1999/xlink" version="1.1">
<metadata>
Created by FontForge 20150401 at Sat May  9 15:37:52 2015
 By Taras Remez
Copyright (c) 2015, Taras Remez
</metadata>
<defs>
<font id="font-communication" horiz-adv-x="512" >
  <font-face 
    font-family="font-communication"
    font-weight="400"
    font-stretch="normal"
    units-per-em="512"
    panose-1="2 0 5 3 0 0 0 0 0 0"
    ascent="448"
    descent="-64"
    bbox="0 -64 512 448"
    underline-thickness="25.6"
    underline-position="-51.2"
    unicode-range="U+0020-F126"
  />
    <missing-glyph />
    <glyph glyph-name="space" unicode=" " horiz-adv-x="200" 
 />
    <glyph glyph-name="uniF11C" unicode="&#xf11c;" 
d="M0 448h512v-512h-512v512zM469.333 384c23.4668 0 42.667 -19.2002 42.667 -42.667l-0.212891 -298.666c0 -23.4668 -18.9873 -42.667 -42.4541 -42.667h-426.666c-23.4668 0 -42.667 19.2002 -42.667 42.667v298.666c0 23.4668 19.2002 42.667 42.667 42.667h426.666z
M170.667 320c-35.4141 0 -64 -28.5869 -64 -64s28.5859 -64 64 -64c35.4131 0 64 28.5869 64 64s-28.5869 64 -64 64zM298.667 64v21.333c0 42.667 -85.334 66.1338 -128 66.1338c-42.667 0 -128 -23.4668 -128 -66.1338v-21.333h256zM380.8 149.333
c-4.69336 13.4404 -7.4668 27.7334 -7.4668 42.667s2.77344 29.2266 7.4668 42.667h34.9873l32.2129 42.666l-42.4531 42.4541c-27.9473 -20.9072 -48.6406 -50.5605 -58.2402 -85.1201c-3.83984 -13.6533 -5.97363 -27.9473 -5.97363 -42.667
s2.13379 -29.0137 5.97363 -42.667c9.59961 -34.3467 30.293 -64.2129 58.2402 -85.1201l42.4531 42.4541l-32.2129 42.666h-34.9873z" />
    <glyph glyph-name="uniF104" unicode="&#xf104;" 
d="M0 448h512v-512h-512v512zM362.667 12.5869l-72.7471 72.7461l30.0801 30.0801l72.7471 -72.7461zM160 277.333l96 96l96 -96h-74.667v-136.746l-128 -128l-30.0801 30.0801l115.414 115.413v119.253h-74.667z" />
    <glyph glyph-name="uniF11A" unicode="&#xf11a;" 
d="M0 448h512v-512h-512v512zM141.227 217.813c30.7197 -60.373 80.2139 -109.653 140.587 -140.587l46.9336 46.9336c5.75977 5.75977 14.293 7.67969 21.7598 5.12012c23.8936 -7.89355 49.7061 -12.1602 76.1602 -12.1602c11.7334 0 21.333 -9.60059 21.333 -21.333
v-74.4541c0 -11.7334 -9.59961 -21.333 -21.333 -21.333c-200.32 0 -362.667 162.347 -362.667 362.667c0 11.7334 9.59961 21.333 21.333 21.333h74.667c11.7334 0 21.333 -9.59961 21.333 -21.333c0 -26.667 4.2666 -52.2666 12.1602 -76.1602
c2.34668 -7.4668 0.640625 -15.7871 -5.33301 -21.7598z" />
    <glyph glyph-name="uniF11D" unicode="&#xf11d;" 
d="M0 448h512v-512h-512v512zM448 277.333l-64 -42.666l-64 42.666v21.334l64 -42.667l64 42.667v-21.334zM469.333 384c23.4668 0 42.667 -19.2002 42.667 -42.667l-0.212891 -298.666c0 -23.4668 -18.9873 -42.667 -42.4541 -42.667h-426.666
c-23.4668 0 -42.667 19.2002 -42.667 42.667v298.666c0 23.4668 19.2002 42.667 42.667 42.667h426.666zM170.667 320c-35.4141 0 -64 -28.5869 -64 -64s28.5859 -64 64 -64c35.4131 0 64 28.5869 64 64s-28.5869 64 -64 64zM298.667 64v21.333
c0 42.667 -85.334 66.1338 -128 66.1338c-42.667 0 -128 -23.4668 -128 -66.1338v-21.333h256zM469.333 192v128h-170.666v-128h170.666zM0 448h512v-512h-512v512z" />
    <glyph glyph-name="uniF107" unicode="&#xf107;" 
d="M0 448h512v-512h-512v512zM298.667 362.667h128v-128l-48.8535 48.8525l-61.4404 -61.4395l-30.293 30.293l61.4395 61.4404zM213.333 362.667l-48.8525 -48.8535l112.853 -113.066v-179.414h-42.666v161.92l-100.48 100.267l-48.8535 -48.8525v128h128z" />
    <glyph glyph-name="uniF123" unicode="&#xf123;" 
d="M384 362.667l85.333 -85.334h-64v-149.333c0 -47.1465 -38.1865 -85.333 -85.333 -85.333s-85.333 38.1865 -85.333 85.333v149.333c0 23.4668 -19.2002 42.667 -42.667 42.667s-42.667 -19.2002 -42.667 -42.667v-149.333h64l-85.333 -85.333l-85.333 85.333h64v149.333
c0 47.1475 38.1865 85.334 85.333 85.334s85.333 -38.1865 85.333 -85.334v-149.333c0 -23.4668 19.2002 -42.667 42.667 -42.667s42.667 19.2002 42.667 42.667v149.333h-64zM0 448h512v-512h-512v512z" />
    <glyph glyph-name="uniF10B" unicode="&#xf10b;" 
d="M0 448h512v-512h-512v512zM0 448h512v-512h-512v512zM0 448v-512h512v512h-512zM426.667 448v-42.667h-341.334v42.667h341.334zM85.333 -64v42.667h341.334v-42.667h-341.334zM426.667 362.667c23.4668 0 42.666 -19.2002 42.666 -42.667v-256
c0 -23.4668 -19.1992 -42.667 -42.666 -42.667h-341.334c-23.4668 0 -42.666 19.2002 -42.666 42.667v256c0 23.4668 19.1992 42.667 42.666 42.667h341.334zM256 304c-26.4531 0 -48 -21.5469 -48 -48s21.5469 -48 48 -48s48 21.5469 48 48s-21.5469 48 -48 48z
M362.667 85.333v32c0 35.627 -71.04 53.334 -106.667 53.334s-106.667 -17.707 -106.667 -53.334v-32h213.334z" />
    <glyph glyph-name="uniF106" unicode="&#xf106;" 
d="M0 448h512v-512h-512v512zM426.667 332.587l-247.254 -247.254h140.587v-42.666h-213.333v213.333h42.666v-140.587l247.254 247.254z" />
    <glyph glyph-name="uniF109" unicode="&#xf109;" 
d="M106.667 170.667v42.666h298.666v-42.666h-298.666zM64 85.333v42.667h298.667v-42.667h-298.667zM149.333 298.667h298.667v-42.667h-298.667v42.667zM0 448h512v-512h-512v512z" />
    <glyph glyph-name="uniF121" unicode="&#xf121;" 
d="M0 448h512v-512h-512v512zM21.5469 298.667c0 23.4668 18.9863 42.666 42.4531 42.666h384c23.4668 0 42.667 -19.1992 42.667 -42.666v-213.334c0 -23.4668 -19.2002 -42.666 -42.667 -42.666h-384c-23.4668 0 -42.667 19.1992 -42.667 42.666zM405.333 298.667
h-298.666v-213.334h298.666v213.334z" />
    <glyph glyph-name="uniF101" unicode="&#xf101;" 
d="M0 448h512v-512h-512v512zM141.227 217.813c30.7197 -60.373 80.2139 -109.653 140.587 -140.587l46.9336 46.9336c5.75977 5.75977 14.293 7.67969 21.7598 5.12012c23.8936 -7.89355 49.7061 -12.1602 76.1602 -12.1602c11.7334 0 21.333 -9.60059 21.333 -21.333
v-74.4541c0 -11.7334 -9.59961 -21.333 -21.333 -21.333c-200.32 0 -362.667 162.347 -362.667 362.667c0 11.7334 9.59961 21.333 21.333 21.333h74.667c11.7334 0 21.333 -9.59961 21.333 -21.333c0 -26.667 4.2666 -52.2666 12.1602 -76.1602
c2.34668 -7.4668 0.640625 -15.7871 -5.33301 -21.7598z" />
    <glyph glyph-name="uniF10D" unicode="&#xf10d;" 
d="M0 448h512v-512h-512v512zM256 42.667c23.4668 0 42.667 -19.2002 42.667 -42.667s-19.2002 -42.667 -42.667 -42.667s-42.667 19.2002 -42.667 42.667s19.2002 42.667 42.667 42.667zM128 426.667c23.4668 0 42.667 -19.2002 42.667 -42.667
s-19.2002 -42.667 -42.667 -42.667s-42.667 19.2002 -42.667 42.667s19.2002 42.667 42.667 42.667zM128 298.667c23.4668 0 42.667 -19.2002 42.667 -42.667s-19.2002 -42.667 -42.667 -42.667s-42.667 19.2002 -42.667 42.667s19.2002 42.667 42.667 42.667zM128 170.667
c23.4668 0 42.667 -19.2002 42.667 -42.667s-19.2002 -42.667 -42.667 -42.667s-42.667 19.2002 -42.667 42.667s19.2002 42.667 42.667 42.667zM384 341.333c-23.4668 0 -42.667 19.2002 -42.667 42.667s19.2002 42.667 42.667 42.667s42.667 -19.2002 42.667 -42.667
s-19.2002 -42.667 -42.667 -42.667zM256 170.667c23.4668 0 42.667 -19.2002 42.667 -42.667s-19.2002 -42.667 -42.667 -42.667s-42.667 19.2002 -42.667 42.667s19.2002 42.667 42.667 42.667zM384 170.667c23.4668 0 42.667 -19.2002 42.667 -42.667
s-19.2002 -42.667 -42.667 -42.667s-42.667 19.2002 -42.667 42.667s19.2002 42.667 42.667 42.667zM384 298.667c23.4668 0 42.667 -19.2002 42.667 -42.667s-19.2002 -42.667 -42.667 -42.667s-42.667 19.2002 -42.667 42.667s19.2002 42.667 42.667 42.667zM256 298.667
c23.4668 0 42.667 -19.2002 42.667 -42.667s-19.2002 -42.667 -42.667 -42.667s-42.667 19.2002 -42.667 42.667s19.2002 42.667 42.667 42.667zM256 426.667c23.4668 0 42.667 -19.2002 42.667 -42.667s-19.2002 -42.667 -42.667 -42.667s-42.667 19.2002 -42.667 42.667
s19.2002 42.667 42.667 42.667z" />
    <glyph glyph-name="uniF122" unicode="&#xf122;" 
d="M0 448h512v-512h-512v512zM362.667 426.453c23.4668 0 42.666 -18.9863 42.666 -42.4531v-384c0 -23.4668 -19.1992 -42.667 -42.666 -42.667h-213.334c-23.4668 0 -42.4531 19.2002 -42.4531 42.667v384c0 23.4668 18.9863 42.667 42.4531 42.667zM362.667 42.667
v298.666h-213.334v-298.666h213.334z" />
    <glyph glyph-name="uniF10A" unicode="&#xf10a;" 
d="M469.12 362.667l0.212891 -384l-85.333 85.333h-298.667c-23.4668 0 -42.666 19.2002 -42.666 42.667v256c0 23.4668 19.1992 42.666 42.666 42.666h341.334c23.4668 0 42.4531 -19.1992 42.4531 -42.666zM384 149.333v42.667h-256v-42.667h256zM384 213.333v42.667h-256
v-42.667h256zM384 277.333v42.667h-256v-42.667h256zM0 448h512v-512h-512v512z" />
    <glyph glyph-name="uniF102" unicode="&#xf102;" 
d="M0 448h512v-512h-512v512zM256 256c-34.1338 0 -67.2002 -5.33301 -98.1338 -15.3604v-66.1328c0 -8.32031 -4.90625 -15.7871 -11.9463 -19.2002c-20.9062 -10.4531 -39.8936 -23.8936 -56.7471 -39.4668c-3.83984 -3.83984 -9.17285 -5.97363 -14.9326 -5.97363
c-5.97363 0 -11.3066 2.34668 -15.1465 6.1875l-52.9072 52.9062c-3.83984 3.62695 -6.18652 8.95996 -6.18652 14.9336c0 5.97266 2.34668 11.3066 6.18652 15.1465c65.0664 61.6533 152.96 99.627 249.813 99.627s184.747 -37.9736 249.813 -99.627
c3.83984 -3.83984 6.18652 -9.17383 6.18652 -15.1465c0 -5.97363 -2.34668 -11.3066 -6.18652 -15.1465l-52.9072 -52.9072c-3.83984 -3.83984 -9.17285 -6.18652 -15.1465 -6.18652c-5.75977 0 -11.0928 2.34668 -14.9326 5.97363
c-16.8535 15.7861 -36.0537 29.0127 -56.9609 39.4668c-7.03906 3.41309 -11.9463 10.666 -11.9463 19.1992v66.1338c-30.7197 10.2402 -63.7861 15.5732 -97.9199 15.5732z" />
    <glyph glyph-name="uniF113" unicode="&#xf113;" 
d="M0 448h512v-512h-512v512zM0 448v-512h512v512h-512zM376.747 278.827c66.5596 -66.5605 66.5596 -174.721 0 -241.28c-33.2803 -33.2803 -77.0137 -49.9199 -120.747 -49.9199s-87.4668 16.6396 -120.747 49.9199c-66.5596 66.5596 -66.5596 174.72 0 241.28
l120.747 120.746zM256 30.0801v309.12l-90.4531 -90.667c-24.3203 -24.1064 -37.5469 -56.3203 -37.5469 -90.4531c0 -34.1338 13.2266 -66.1338 37.5469 -90.4531c24.1064 -24.3203 56.3193 -37.5469 90.4531 -37.5469z" />
    <glyph glyph-name="uniF112" unicode="&#xf112;" 
d="M0 448h512v-512h-512v512zM0 448v-512h512v512h-512zM440.533 2.77344l7.4668 -7.67969l-27.0938 -27.0938l-57.5996 57.5996c-31.1465 -25.3867 -69.1201 -37.9727 -107.307 -37.9727c-43.7334 0 -87.4668 16.6396 -120.747 49.9199
c-62.293 62.5068 -66.3467 161.066 -11.9463 228.053l-59.3066 59.3066l27.0938 27.0938l58.666 -58.667l30.2939 -30.0801l75.9463 -76.1592l134.4 -134.188zM256 30.0801v102.826l-102.187 101.974c-16.6406 -21.9736 -25.8135 -48.6396 -25.8135 -76.7998
c0 -34.1338 13.2266 -66.1338 37.5469 -90.4531c24.1064 -24.3203 56.3193 -37.5469 90.4531 -37.5469zM256 339.2l-48.8535 -48.6406l-30.0801 30.0801l78.9336 78.9336l120.533 -120.746c52.0537 -52.0537 63.3604 -129.067 34.1338 -192.214l-154.667 154.88v97.707z" />
    <glyph glyph-name="uniF114" unicode="&#xf114;" 
d="M0 448h512v-512h-512v512zM405.333 405.333c23.4668 0 42.667 -19.1992 42.667 -42.666v-298.667c0 -23.4668 -19.2002 -42.667 -42.667 -42.667h-85.333l-64 -64l-64 64h-85.333c-23.6807 0 -42.667 19.2002 -42.667 42.667v298.667
c0 23.4668 18.9863 42.666 42.667 42.666h298.666zM277.333 64v42.667h-42.666v-42.667h42.666zM321.493 229.333c12.1602 12.1602 19.8398 29.2266 19.8398 48c0 47.1475 -38.1865 85.334 -85.333 85.334s-85.333 -38.1865 -85.333 -85.334h42.666
c0 23.4668 19.2002 42.667 42.667 42.667s42.667 -19.2002 42.667 -42.667c0 -11.7334 -4.69336 -22.3994 -12.5869 -30.0801l-26.4531 -26.8799c-15.3604 -15.5732 -24.96 -36.9062 -24.96 -60.373v-10.667h42.666c0 32 9.60059 44.8008 24.96 60.374z" />
    <glyph glyph-name="uniF110" unicode="&#xf110;" 
d="M0 448h512v-512h-512v512zM448 320c11.7334 0 21.333 -9.59961 21.333 -21.333v-320l-85.333 85.333h-234.667c-11.7334 0 -21.333 9.59961 -21.333 21.333v42.667h277.333v192h42.667zM362.667 192c0 -11.7334 -9.60059 -21.333 -21.334 -21.333h-213.333
l-85.333 -85.334v298.667c0 11.7334 9.59961 21.333 21.333 21.333h277.333c11.7334 0 21.334 -9.59961 21.334 -21.333v-192z" />
    <glyph glyph-name="uniF10C" unicode="&#xf10c;" 
d="M0 448h512v-512h-512v512zM362.667 384v-106.667h-21.334v106.667h21.334zM320 341.333v-64h-64v21.334h42.667v21.333h-42.667v64h64v-21.333h-42.667v-21.334h42.667zM384 384h64v-64h-42.667v-42.667h-21.333v106.667zM426.667 341.333v21.334h-21.334v-21.334h21.334
zM426.667 117.333c11.7334 0 21.333 -9.59961 21.333 -21.333v-74.667c0 -11.7334 -9.59961 -21.333 -21.333 -21.333c-200.32 0 -362.667 162.347 -362.667 362.667c0 11.7334 9.59961 21.333 21.333 21.333h74.667c11.7334 0 21.333 -9.59961 21.333 -21.333
c0 -26.667 4.2666 -52.2666 12.1602 -76.1602c2.34668 -7.4668 0.640625 -15.7871 -5.12012 -21.334l-46.9326 -47.1465c30.7197 -60.5859 80.2129 -109.866 140.586 -140.586l46.9336 46.9326c5.75977 5.76074 14.0801 7.4668 21.5469 5.12012
c23.8936 -7.89355 49.4932 -12.1602 76.1602 -12.1602z" />
    <glyph glyph-name="uniF103" unicode="&#xf103;" 
d="M0 448h512v-512h-512v512zM192 341.333h213.333v-213.333h-42.666v140.587l-247.254 -247.254l-30.0801 30.0801l247.254 247.254h-140.587v42.666z" />
    <glyph glyph-name="uniF126" unicode="&#xf126;" 
d="M0 448h512v-512h-512v512zM269.866 234.667h220.801v-85.334h-42.667v-85.333h-85.333v85.333h-92.8008c-17.4932 -49.7061 -64.8525 -85.333 -120.533 -85.333c-70.6133 0 -128 57.3867 -128 128s57.3867 128 128 128c55.6807 0 103.04 -35.627 120.533 -85.333z
M149.333 149.333c23.4668 0 42.667 19.2002 42.667 42.667s-19.2002 42.667 -42.667 42.667s-42.666 -19.2002 -42.666 -42.667s19.1992 -42.667 42.666 -42.667z" />
    <glyph glyph-name="uniF11B" unicode="&#xf11b;" 
d="M0 448h512v-512h-512v512zM0 448v-512h512v512h-512zM374.613 144.213l-34.3467 34.3467c0.639648 4.48047 1.06641 8.95996 1.06641 13.4404c0 47.1465 -38.1865 85.333 -85.333 85.333c-4.48047 0 -8.95996 -0.639648 -13.2266 -1.2793l-34.5605 34.5596
c14.7207 5.97363 30.9336 9.38672 47.7871 9.38672c70.6133 0 128 -57.3867 128 -128c0 -16.8535 -3.41309 -33.0664 -9.38672 -47.7871zM256 362.667c-28.7998 0 -56.1064 -7.25391 -80 -19.8398l-31.1465 31.1465c32.4268 19.626 70.3994 31.3594 111.146 31.3594
c117.76 0 213.333 -95.5732 213.333 -213.333c0 -40.7471 -11.5195 -78.7197 -31.5732 -111.146l-31.3594 31.3594c12.7998 23.8936 20.2666 50.9873 20.2666 79.7871c0 94.293 -76.374 170.667 -170.667 170.667zM69.7598 394.667l21.334 -21.334l356.906 -356.906
l-27.0938 -27.0938l-160.213 160.214l-0.212891 0.212891l-4.48047 -0.426758c-23.4668 0 -42.667 19.2002 -42.667 42.667l0.426758 4.48047l-33.7061 33.7061c-5.76074 -11.5195 -9.38672 -24.3203 -9.38672 -38.1865c0 -31.5732 17.2793 -58.667 42.666 -73.5996
l-21.333 -37.1201c-38.1865 22.1865 -64 63.3594 -64 110.72c0 25.5996 7.67969 49.4932 20.4805 69.333l-30.5068 30.7207c-20.4805 -27.9473 -32.6406 -62.5068 -32.6406 -100.054c0 -63.1465 34.3467 -117.974 85.1201 -147.627l-21.333 -36.9062
c-63.5732 36.9062 -106.453 105.6 -106.453 184.533c0 49.2803 16.8525 94.5068 44.7998 130.773l-44.7998 44.7998z" />
    <glyph glyph-name="uniF115" unicode="&#xf115;" 
d="M0 448h512v-512h-512v512zM250.667 203.307l-2.34668 2.34668zM256 309.333c-15.7871 0 -29.6533 -6.82617 -39.4668 -17.9199l-68.0527 68.0537c27.3066 28.1602 65.2793 45.8662 107.52 45.8662c82.5596 0 149.333 -66.7734 149.333 -149.333
c0 -35.8398 -15.3594 -77.2266 -36.2666 -116.906l-77.4395 77.4395c10.666 9.81348 17.7061 23.6797 17.7061 39.4668c0 29.4404 -23.8926 53.333 -53.333 53.333zM349.227 104.533l77.4404 -77.4395l-27.0938 -27.0938l-71.4668 71.4668
c-36.4795 -53.333 -72.1064 -92.7998 -72.1064 -92.7998s-149.333 165.333 -149.333 277.333c0 11.3066 1.49316 22.4004 3.83984 33.0664l-67.8398 67.8398l27.0928 27.0938l178.347 -178.347l2.34668 -2.34668z" />
    <glyph glyph-name="uniF10E" unicode="&#xf10e;" 
d="M0 448h512v-512h-512v512zM256 405.333c117.76 0 213.333 -95.5732 213.333 -213.333s-95.5732 -213.333 -213.333 -213.333s-213.333 95.5732 -213.333 213.333s95.5732 213.333 213.333 213.333zM256 21.333c39.4668 0 75.7334 13.4404 104.533 36.0537
l-239.146 239.146c-22.6133 -28.7998 -36.0537 -65.0664 -36.0537 -104.533c0 -94.293 76.374 -170.667 170.667 -170.667zM390.613 87.4668c22.6133 28.7998 36.0537 65.0664 36.0537 104.533c0 94.293 -76.374 170.667 -170.667 170.667
c-39.4668 0 -75.7334 -13.4404 -104.533 -36.0537z" />
    <glyph glyph-name="uniF116" unicode="&#xf116;" 
d="M256 405.333c82.5596 0 149.333 -66.7734 149.333 -149.333c0 -112 -149.333 -277.333 -149.333 -277.333s-149.333 165.333 -149.333 277.333c0 82.5596 66.7734 149.333 149.333 149.333zM256 202.667c29.4404 0 53.333 23.8926 53.333 53.333
s-23.8926 53.333 -53.333 53.333s-53.333 -23.8926 -53.333 -53.333s23.8926 -53.333 53.333 -53.333zM0 448h512v-512h-512v512z" />
    <glyph glyph-name="uniF125" unicode="&#xf125;" 
d="M0 448h512v-512h-512v512zM394.667 320c64.8525 0 117.333 -52.4805 117.333 -117.333c0 -64.8535 -52.4805 -117.334 -117.333 -117.334h-277.334c-64.8525 0 -117.333 52.4805 -117.333 117.334c0 64.8525 52.4805 117.333 117.333 117.333
c64.8535 0 117.334 -52.4805 117.334 -117.333c0 -28.374 -10.0273 -54.4004 -26.8799 -74.667h96.4258c-16.8525 20.2666 -26.8799 46.293 -26.8799 74.667c0 64.8525 52.4805 117.333 117.334 117.333zM117.333 128c41.1738 0 74.667 33.4932 74.667 74.667
c0 41.1729 -33.4932 74.666 -74.667 74.666c-41.1729 0 -74.666 -33.4932 -74.666 -74.666c0 -41.1738 33.4932 -74.667 74.666 -74.667zM394.667 128c41.1729 0 74.666 33.4932 74.666 74.667c0 41.1729 -33.4932 74.666 -74.666 74.666
c-41.1738 0 -74.667 -33.4932 -74.667 -74.666c0 -41.1738 33.4932 -74.667 74.667 -74.667z" />
    <glyph glyph-name="uniF11F" unicode="&#xf11f;" 
d="M0 448h512v-512h-512v512zM21.5469 298.667c0 23.4668 18.9863 42.666 42.4531 42.666h384c23.4668 0 42.667 -19.1992 42.667 -42.666v-213.334c0 -23.4668 -19.2002 -42.666 -42.667 -42.666h-384c-23.4668 0 -42.667 19.1992 -42.667 42.666zM405.333 298.667
h-298.666v-213.334h298.666v213.334z" />
    <glyph glyph-name="uniF108" unicode="&#xf108;" 
d="M426.667 405.333c23.4668 0 42.666 -19.1992 42.666 -42.666v-256c0 -23.4668 -19.1992 -42.667 -42.666 -42.667h-298.667l-85.333 -85.333l0.212891 384c0 23.4668 18.9863 42.666 42.4531 42.666h341.334zM128 256v-42.667h256v42.667h-256zM298.667 149.333v42.667
h-170.667v-42.667h170.667zM384 277.333v42.667h-256v-42.667h256zM0 448h512v-512h-512v512z" />
    <glyph glyph-name="uniF118" unicode="&#xf118;" 
d="M426.667 405.333c23.4668 0 42.666 -19.1992 42.666 -42.666v-256c0 -23.4668 -19.1992 -42.667 -42.666 -42.667h-298.667l-85.333 -85.333v384c0 23.4668 19.1992 42.666 42.666 42.666h341.334zM0 448h512v-512h-512v512z" />
    <glyph glyph-name="uniF117" unicode="&#xf117;" 
d="M426.667 405.333c23.4668 0 42.666 -19.1992 42.666 -42.666v-256c0 -23.4668 -19.1992 -42.667 -42.666 -42.667h-298.667l-85.333 -85.333l0.212891 384c0 23.4668 18.9863 42.666 42.4531 42.666h341.334zM384 149.333v42.667h-256v-42.667h256zM384 213.333v42.667
h-256v-42.667h256zM384 277.333v42.667h-256v-42.667h256zM0 448h512v-512h-512v512z" />
    <glyph glyph-name="uniF120" unicode="&#xf120;" 
d="M0 448h512v-512h-512v512zM362.667 426.453c23.4668 0 42.666 -18.9863 42.666 -42.4531v-384c0 -23.4668 -19.1992 -42.667 -42.666 -42.667h-213.334c-23.4668 0 -42.4531 19.2002 -42.4531 42.667v384c0 23.4668 18.9863 42.667 42.4531 42.667zM362.667 42.667
v298.666h-213.334v-298.666h213.334z" />
    <glyph glyph-name="uniF105" unicode="&#xf105;" 
d="M0 448h512v-512h-512v512zM417.92 298.667l30.0801 -30.0801l-192 -192l-149.333 149.333v-97.9199h-42.667v170.667h170.667v-42.667h-97.9199l119.253 -119.253z" />
    <glyph glyph-name="uniF100" unicode="&#xf100;" 
d="M0 448h512v-512h-512v512zM256 298.667h213.333v-298.667h-426.666v384h213.333v-85.333zM128 42.667v42.666h-42.667v-42.666h42.667zM128 128v42.667h-42.667v-42.667h42.667zM128 213.333v42.667h-42.667v-42.667h42.667zM128 298.667v42.666h-42.667v-42.666h42.667z
M213.333 42.667v42.666h-42.666v-42.666h42.666zM213.333 128v42.667h-42.666v-42.667h42.666zM213.333 213.333v42.667h-42.666v-42.667h42.666zM213.333 298.667v42.666h-42.666v-42.666h42.666zM426.667 42.667v213.333h-170.667v-42.667h42.667v-42.666h-42.667v-42.667
h42.667v-42.667h-42.667v-42.666h170.667zM384 213.333v-42.666h-42.667v42.666h42.667zM384 128v-42.667h-42.667v42.667h42.667z" />
    <glyph glyph-name="uniF111" unicode="&#xf111;" 
d="M192 384l85.333 -85.1201h-64v-149.547h-42.666v149.547h-64zM341.333 85.1201h64l-85.333 -85.1201l-85.333 85.1201h64v149.547h42.666v-149.547zM0 448h512v-512h-512v512z" />
    <glyph glyph-name="uniF11E" unicode="&#xf11e;" 
d="M0 448h512v-512h-512v512zM505.813 92.373c3.83984 -3.83984 6.18652 -9.17285 6.18652 -14.9326c0 -5.97363 -2.34668 -11.3066 -6.18652 -15.1475l-52.9072 -52.9062c-3.83984 -3.83984 -9.17285 -6.18652 -15.1465 -6.18652
c-5.75977 0 -11.0928 2.13281 -14.9326 5.97266c-16.8535 15.5742 -35.8408 29.0137 -56.7471 39.4668c-7.04004 3.41406 -11.9463 10.8799 -11.9463 19.2002v66.1338c-30.9336 10.0264 -64 15.3594 -98.1338 15.3594s-67.2002 -5.33301 -98.1338 -15.5732v-66.1328
c0 -8.5332 -4.90625 -15.7871 -11.9463 -19.2002c-20.6934 -10.4531 -39.8936 -23.6797 -56.7471 -39.4668c-3.83984 -3.62695 -9.17285 -5.97363 -14.9326 -5.97363c-5.97363 0 -11.3066 2.34668 -15.1465 6.18652l-52.9072 52.9072
c-3.83984 3.83984 -6.18652 9.17285 -6.18652 15.1465s2.34668 11.3066 6.18652 15.1465c65.0664 61.6533 152.96 99.627 249.813 99.627s184.747 -37.9736 249.813 -99.627zM451.413 314.453c-2.34668 -0.639648 -75.9463 -75.7334 -75.9463 -75.7334l-30.0801 30.0801
l75.9463 75.7334zM277.333 405.333v-106.666h-42.666v106.666h42.666zM136.533 238.72c0 0 -73.5996 75.0938 -75.9463 75.7334l30.293 30.2939l75.7334 -75.9473z" />
    <glyph glyph-name="uniF119" unicode="&#xf119;" 
d="M0 448h512v-512h-512v512zM405.12 341.333l0.212891 -249.173l-241.92 241.92l49.9199 49.9199h149.334c23.4668 0 42.4531 -19.2002 42.4531 -42.667zM77.8662 365.227l372.693 -372.693l-27.0928 -27.0928l-40.1064 40.1064
c-6.1875 -3.41309 -13.0137 -5.54688 -20.4805 -5.54688h-213.547c-23.4668 0 -42.666 19.2002 -42.666 42.667v239.573l-55.8936 55.8936z" />
    <glyph glyph-name="uniF10F" unicode="&#xf10f;" 
d="M426.667 362.667c23.4668 0 42.666 -19.2002 42.666 -42.667v-256c0 -23.4668 -19.1992 -42.667 -42.666 -42.667h-341.334c-23.4668 0 -42.666 19.2002 -42.666 42.667l0.212891 256c0 23.4668 18.9863 42.667 42.4531 42.667h341.334zM426.667 277.333v42.667
l-170.667 -106.667l-170.667 106.667v-42.667l170.667 -106.666zM0 448h512v-512h-512v512z" />
    <glyph glyph-name="uniF124" unicode="&#xf124;" 
d="M426.667 405.333c23.4668 0 42.666 -19.1992 42.666 -42.666v-256c0 -23.4668 -19.1992 -42.667 -42.666 -42.667h-298.667l-85.333 -85.333l0.212891 384c0 23.4668 18.9863 42.666 42.4531 42.666h341.334zM192 213.333v42.667h-42.667v-42.667h42.667z
M277.333 213.333v42.667h-42.666v-42.667h42.666zM362.667 213.333v42.667h-42.667v-42.667h42.667zM0 448h512v-512h-512v512z" />
  </font>
</defs>
</svg>
